/* XPM */
static char *_e36dc443ed44a6be553b01ba7d37db9rJ1sg8o1sksoqoK3[] = {
/* columns rows colors chars-per-pixel */
"64 64 189 2 ",
"   c #3F3F3F",
".  c #444342",
"X  c #494743",
"o  c #4D4A45",
"O  c #4A4949",
"+  c #524E46",
"@  c #56524A",
"#  c #5A554A",
"$  c #5E584D",
"%  c #545454",
"&  c #5B5954",
"*  c #5B5B5B",
"=  c #635C4E",
"-  c #635F53",
";  c #605F5D",
":  c #666053",
">  c #6B6452",
",  c #6C6855",
"<  c #64635D",
"1  c #736A56",
"2  c #736C5B",
"3  c #796F59",
"4  c #7C725B",
"5  c #646464",
"6  c #6D6B67",
"7  c #6F6F6F",
"8  c #736D61",
"9  c #747366",
"0  c #7C7563",
"q  c #70706F",
"w  c #7D7868",
"e  c #737270",
"r  c #787671",
"t  c #7D7A73",
"y  c #82775D",
"u  c #807660",
"i  c #857A60",
"p  c #8A7E62",
"a  c #847E6C",
"s  c #817D74",
"d  c #8E8164",
"f  c #8C856D",
"g  c #918365",
"h  c #988A65",
"j  c #928569",
"k  c #968969",
"l  c #9B8C6B",
"z  c #9F906E",
"x  c #878176",
"c  c #8A8376",
"v  c #8D8678",
"b  c #948A70",
"n  c #938B7A",
"m  c #988F7C",
"M  c #9D9276",
"N  c #95937C",
"B  c #9D937D",
"V  c #A4946F",
"C  c #A59572",
"Z  c #A79C75",
"A  c #AC9B74",
"S  c #A0957F",
"D  c #A69A7F",
"F  c #AC9E7A",
"G  c #B19F76",
"H  c #B09F79",
"J  c #B2A177",
"K  c #B3A27A",
"L  c #BAA67B",
"P  c #BDAA7D",
"I  c #C1AD7D",
"U  c #C3B17C",
"Y  c #908D82",
"T  c #95948A",
"R  c #A29780",
"E  c #A69A82",
"W  c #AB9E82",
"Q  c #AEA183",
"!  c #ACA689",
"~  c #AFA88B",
"^  c #B4A586",
"/  c #BAA780",
"(  c #B6A985",
")  c #BEAD83",
"_  c #B5AA8B",
"`  c #BBAC8B",
"'  c #BDB087",
"]  c #BDB28D",
"[  c #B4AE94",
"{  c #BDAC90",
"}  c #B6B091",
"|  c #BBB594",
" . c #B6B398",
".. c #BCB79A",
"X. c #BDB99B",
"o. c #BCBAA2",
"O. c #C1AE81",
"+. c #C0AF8A",
"@. c #C4B183",
"#. c #C9B586",
"$. c #C6BB84",
"%. c #C3B38D",
"&. c #C9B68A",
"*. c #C7BA8E",
"=. c #CCBA8C",
"-. c #D3BB87",
";. c #D2BD8C",
":. c #C2B793",
">. c #C4B993",
",. c #CDBC92",
"<. c #C4BC9B",
"1. c #C9BE99",
"2. c #D4BF93",
"3. c #C3BFA1",
"4. c #D6C18D",
"5. c #D9C38E",
"6. c #CAC395",
"7. c #CDC49D",
"8. c #D5C194",
"9. c #DAC593",
"0. c #DEC995",
"q. c #D4C59D",
"w. c #DAC69C",
"e. c #D7CA9D",
"r. c #DFC999",
"t. c #DFD19F",
"y. c #E5D08F",
"u. c #EED08F",
"i. c #E3CC95",
"p. c #E8CF93",
"a. c #E4CD9A",
"s. c #E7D195",
"d. c #EBD295",
"f. c #E6D19C",
"g. c #ECD49B",
"h. c #EED99E",
"j. c #F3D494",
"k. c #F4DA97",
"l. c #F0D69B",
"z. c #F3DB9D",
"x. c #F9DD9D",
"c. c #F3E097",
"v. c #F4E09E",
"b. c #FAE19D",
"n. c #C5C2A3",
"m. c #CBC7A5",
"M. c #CECAAB",
"N. c #D5CBA4",
"B. c #DCCEA4",
"V. c #D4CDAC",
"C. c #DCCFA9",
"Z. c #DED1A4",
"A. c #D6D0AF",
"S. c #DCD0AA",
"D. c #CFCBB0",
"F. c #D2CEB4",
"G. c #D6CEB8",
"H. c #D4D1B5",
"J. c #DAD4B6",
"K. c #D4D3BD",
"L. c #E1CFA0",
"P. c #E4D2A3",
"I. c #EBD6A3",
"U. c #E7D9A6",
"Y. c #EDDBA4",
"T. c #E3D4AA",
"R. c #E6D9AC",
"E. c #EDDDAC",
"W. c #F0D7A1",
"Q. c #F6DEA3",
"!. c #F8DEA4",
"~. c #F4DEAA",
"^. c #F8DCAA",
"/. c #E4D8B2",
"(. c #EEDEB2",
"). c #E1D7BA",
"_. c #F2DEB1",
"`. c #EEE1A6",
"'. c #EEE1AB",
"]. c #F5E1A3",
"[. c #F9E1A4",
"{. c #F3E1AD",
"}. c #FAE2AA",
"|. c #EEE0B2",
" X c #F3E2B1",
".X c #DED8C5",
"XX c #DDD8C7",
"oX c #E2D9C2",
"OX c #E3DDCA",
/* pixels */
"^.!.!.!.Q.Q.Q.Q.~.!.!.!.Q.Q.~.!.x.Q.Q.Q.Q.Q.Q.Q.].Q.Q.Q.x.Q.Q.Q.v.!.Q.x.].Q.x.Q.!.!.[.!.x.Q.Q.].}.].].].Q.b.Q.x.x.v.x.v.x.v.].`.",
"^.!.!.!.!.!.!.Q.!.!.!.!.!.Q.!.!.Q.Q.x.Q.Q.Q.Q.x.x.Q.x.!.!.].Q.Q.x.!.Q.!.!.Q.].Q.!.!.Q.Q.Q.x.z.z.Y.Y.].].!.!.x.x.x.x.x.z.z.v.v.v.",
"~.Q.!.!.~.!.Q.!.Q.Q.Q.!.~.!.Q.Q.[.!.!.Q.Q.!.!.!.Q.Q.].Q.Q.Q.[.Q.Q.].!.Q.!.Q.!.x.!.!.!.!.].Q.l.d.h.h.Q.Q.!.z.g.d.Q.!.].].[.].v.].",
"^.!.Q.Q.Q.!.Q.Q.!.Q.~.].!.Q.Q.!.Q.[.!.Q.v.Q.!.!.].x.!.Q.Q.Q.x.Q.Q.Q.x.Q.x.Q.Q.Q.z.Q.!.!.Q.z.l.d.k.k.z.z.Q.z.g.a.Q.Q.Q.Q.v.v.z.x.",
"^.^.Q.!.!.!.!.!.Q.!.!.!.!.!.!.!.!.!.!.Q.Q.x.!.!.!.x.!.Q.Q.x.Q.Q.!.Q.x.!.].!.Q.x.d.z.z.z.d.d.d.d.y.u.j.Q.^.^.^.~.{._.~.~.].!.Q.Q.",
"^.Q.!.!.~.Q.~.Q.Q.!.!.].Q.].Q.Q.z.Q.Q.x.!.!.Q.Q.Q.Q.Q.Q.Q.Q.x.].x.].Q.Q.Q.Q.].Q.g.z.z.z.l.d.z.z.k.j.j.Q.Q.~._._.(.|.(._.~.~.[.}.",
"^.Q.^.!.!.Q.!.!.!.Q.Q.~.!.Q.!.Q.z.z.O.O.Q.z.I -.Q.5.@.h.Q.x.Q.Q.Q.Q.Q.Q.Q.Q.!.Q.z.Q.!.z.I 5.Q.[.x.U I !.E._ :.).S.C.C.L.L.I.Q.W.",
"^.Q.Q.Q.!.!.Q.Q.~.Q.!.Q.Q.!.!.~.g.z.o . !.g.  V Q.C   s.Q.[.Q.Q.].Q.x.!.].Q.Q.x.Q.!.[.a.  J Q.x.x.= . ^.(.  y ).J.V.C.C.T.E._.^.",
"~.!.Q.Q.Q.Q.!.!.Q.Q.!.!.Q.!.Q.Q.Q.Q.4.;.k j   : l >   d j Q.!.Q.!.Q.Q.Q.Q.Q.Q.Q.l l Q.i.  1 k l l o . b 4 F X.J.H.H...>.*.&.P.g.",
"^.~.].!.!.!.Q.~.!.!.~.].!.!.!.!.Q.x.x.Q.                  x.Q.Q.x.Q.b.Q.x.!.].x.  X [.i.                o 7.F.M.D.H.X.6.>.*.P.L.",
"^.!.Q.Q.Q.Q.!.Q.!.Q.W.!.!.!.!.!.g : > >   > g.@.  O.g.1   z.Q.Q.x.!.Q.Q.!.!.Q.Q.g.g.= =   C g.g   i.f.  + N.} & N n. .| *.&.P.T.",
"~.!.!.!.!.~.Q.Q.!.Q.Q.W.!.[.~.W.3         : Q.=.  #.[.1   Q.x.!.].Q.Q.Q.v.Q.Q.Q.x.Q.      A Q.j   Q.Y.  @ S._ . f 6.] >.*.;.P.I.",
"^.!.!.!.Q.~.!.!.!.!.^.!.!.Q.!.!.Q.!.o   Q.z.Q.Q.Q.Q.Q.1   . X !.Q.Q.Q.].!.Q.>   Q.Q.  4 Q.].Q.x.z.:       . 4 Z.T.T.T.T.P.P.^.}.",
"^.!.!.Q.!.Q.!.Q.!.Q.!.!.Q.Q.l.I.l.Q.@ o Q.z.Q.Q.Q.Q.z.3 X   X !.Q.!.x.Q.Q.x.1 . Q.h.  y Q.x.Q.Q.z.> X X X   4 U.L.I.I.d.f.g.l.W.",
"^.!.!.!.!.Q.!.!.g.z.Q.l.l.d.C       Q.Q.  = Q.8.7 =.l.l.Q.. . !.x.Q.Q.Q.Q.Q.v.x.  X Q.i.  A Q.x.b.b.k.b.d.      K ~.^.^.!.!.!.}.",
"^.!.!.~.Q.Q.!.!.g.z.Q.Q.l.d.G > .   a.g.O , g.=.7 @.0.i.g.O O d.g.!.Q.!.!.Q.!.!.  X f.5.1 P !.!.x.c.k.s.-.  o > / g.Q.x.!.x.x.!.",
"~.Q.Q.Q.Q.!.!.!.!.!.!.!.!.!.!.!.3   7 7 7 7 7 7 7 7 7 7 7 7 7   1 ^.!.!.!.x.x.x..     3 Q.^.^.^.!.x.x.      i !.%.q r.^.}.}.!.x.",
"~.!.!.a.2.I.!.!.~.8.8.!.!.!.a.=.>   7 7 W D 7 c Q c 7 E ^ q 7 % 8 9.2.2.g.!.;.=.  . V G 2.a.^.a.8.Q.!.% % % w 2.W q +.2.Q.!.!.!.",
"~.^.Q.+.7 a.!.!.!.q s !.!.!.F O O O 7 e z.g.7 W [._ 7 g.Q.q q q q q 7 7 8.!.>     X Q.a.7 ` !.E e g.!.7 7 7 7 7 q 7 7 7 g.Q.!.!.",
"^.^.!.+.7 W ^ ^ ^ q r ^ _ ^ a O * 5 *.=.x.z.,.r.!.r.,.F A % & ,.,.;.^ 7 R ( & . ; 5 ^ W 7 n ^ c 7 ! ^ 7 7 % * 7 E 2.v 7 g.Q.!.!.",
"^.~.!.+.7 7 7 7 7 7 7 7 q q * O 6 q k.v.Q.].Q.{.].{.~.2     X `.^.Q.=.7 7 7 O O 7 7 q 7 7 7 7 7 7 7 7 7 7   % 7 ` Q.B e I.!.!.!.",
"^.a.n +.a.n q L.a.d.r.q T a.C   4.s.c.v.Q.Q.E.U.E.E.E.P.Z..   4 j Q.Y.t.t.P.: . q e L.a.s.' 7 =.f.: O f.a.  4 a.W.!.g.a.!.!.!.!.",
"^.9.7 +.W.m q W.!.^.l.7 D !.H   y.c.v.].~.~.R.T.S.S.S.S.Z.      , `.`.`.U.U.>   7 e W.~.].&.q 9.Q.#   !.Q.  y Q.!.!.Q.!.!.!.!.!.",
"^.W.d.g.W.Q.Q.Q.!.Q.^.Q.;.+ X   o X h.~.E.R.C.V.J.H.H.8 X m.7.6.'.'.'.'.M o     C.T.E.].].[.c.c.Q.Q.Q.o # Q.Q.Q.!.!.j X I.!.!.~.",
"^.!.!.!.Q.Q.Q.Q.!.^.Q.Q.2.          `.{.e.C.).oXOXXXG.5   XXJ.V.$.$.E.E.f       %.=.P.I.I.].h.[.Q.Q.^.  + ^.Q.Q.!.!.p   Q.Q.^.!.",
"^.!.!.` 7 a.Q.Q.~.q s Q.Q.Q.H   0.`.Y.|.B.).oXXXOXT       K.J.A.*.$.:.  ] N.$   . . P.Y.Q.,.7 0.Q.=         u !.!.W.z.Q.Q.Q.!.Q.",
"^.!.!.:.s i.W.z.W.7 s g.I.W.A   f. X|.R.>.|  .o.K.T % .   o.o. .' $.%.& ] T.2 & . o  X{.E.%.7 #.i.= . . X = g W.Y.I.l.I.!.Q.!.!.",
"^.!.!.!.^.m 7 q q 7 7 7 q q %   0.{.e 7 ,.} 7 Y F.K.K.<   ....7 x &.a.P.j   e.P.e e E.t.7 7 7 7 7 7 q q r z.a.7 *       I.Q.!.!.",
"^.!.!.I.r.v 7 T R 7 r S n 5 %   =.r.e q ,.:.7 v ~ [ [ < % ! _ 7 s 2.w.e.f . q.B.7 e 8.%.7 7 7 5 5 5 5 q r 2.;.S b p #   i.g.l.!.",
"~.Q.!.+.7 7 q W.Q.7 s Q.2.O O O 6 7 q q 7 7 7 e 7 7 7 q 7 7 7 7 7 7 7 7 % O 6 7 7 7 7 7 7 7 7 %       q q q n d.g.Q.d . p.g.z.!.",
"^.Q.Q.%.7 ^ %.Q.!.` ` K z O k O.8 * +.%.7 t ^ E 7 5 * ! _ q q ` { 7 m %.0 . ^ ' * < ) ^ 7 Y &.O.P +   * 5 %.%.%.+.%.2 . g.Q.!.^.",
"^.Q.^.` 7 a.!.Q.!.Q.i.  . X O.!.4   j.z.7 c f.*.7 %   8.P.q e I.L.7 ^ Q.h   d.[.  o z.g.q ) !.z.^.-     + !.a.7 7 7 % O I.!.!.!.",
"~.x.Q.g.0.Q.!.Q.Q.Q.Q.5./ O 3 j ;.9.Q.Q.r.r.Q.2.% .   5.Q.r.r.Q.Q.r.a.!.l   p d 5.5.b.z.0.g.Q.L g X   9.4.B Q r.0.r.i . l.!.Q.Q.",
"!.Q.Q.Q.Q.x.Q.!.Q.Q.Q.Q.8.O O . a.!.!.!.!.!.!.;.      i.W.!.^.!.Q.Q.Q.Q.z       !.Q.Q.Q.Q.Q.Q.k       Q.Q.7 m Q.Q.Q.p   l.!.Q.Q.",
"!.Q.Q.Q.Q.Q.Q.c s x.z.# l z.A O $ # W.}.!.g.# @   O.g.Q.!.!.!.!.Q.Q.-.= #.z.:   s x Q.g.t +.Q.k   d.z.t c Q.l.Q.*.s 8.g.Q.Q.Q.Q.",
"!.Q.Q.x.Q.Q.!.r 7 Q.g.  k !.F O     W.!.Q.g.      #.~.Q.Q.Q.!.!.Q.Q.#.  ;.x.>   7 q Q.f.7 ` x.k   g.[.7 r !.!.!.&.q a.Q.Q.x.!.].",
"!.Q.!.+.7 q q 7 7 q q 7 q q * O a.!.e q ^.g.7 ;   &.!.v 7 W.Q.7 v Q.2.7 8.Q.>   Q.Q.7 7 q q q q 7 7 q 7 7 7 q 7 7 7 q q z.Q.Q.Q.",
"~.!.x.%.e e 7 r e q q r e 7 * O i.Q.e q Q.g.q 5 . %.^.v 7 I.W.7 v Q.=.7 2.x.>   z.g.7 q r q 7 q e 7 q q e r e 7 q r r q z.Q.Q.Q.",
"!.Q.Q.Q.x.N 7 Q.Q.7 s !.9.e * O 5 7 e 7 q q 7 7 q 7 7 7 7 7 q q 7 7 7 7 7 7 O O O O 7 m !.@.  5.Q.x 7 z.z.d.5.q %.x.].!.!.Q.x.Q.",
"!.Q.Q.Q.Q.^ v z.Q.n S Q.9.7 9 y 6 6 n n 5 7 n c 7 s n n m q q n n n n n t e 0 u O O n E i.I 4 5.Q.S n z.d.d.5.b *.Q.Q.Q.x.Q.Q.].",
"g.p.p.d.l.l.x.Q.].Q.l.z.8.7 ,.!.4   Q.l.  = d.;.7 &.Q.!.!.e e p.Q.!.[.[.Q 7 g.Q.. o Q.i.  A [.!.g.g.x.!.!.Q.z.d.l.z.z.Q.!.!.Q.x.",
"g.d.d.d.l.z.!.!.!.z.z.l.i.^ 0.!.L A %.#.C A d.0.W 0.z.Q.!.^ ^ l.Q.Q.!.[.,.^ l.!.A A #.O.A =.Q.Q.z.z.Q.!.!.z.z.z.l.z.Q.x.!.!.Q.z.",
"g.d.l.l.z.z.!.!.!.x.z.z.!.!.[.Q.g.l.o . Q.l.g.p.g.g.g.z.l.Q.z.W.Q.Q.x.z.z.z.Q.].Q.Q.  4 !.x.x.Q.x.z.Q.Q.!.Q.Q.z.x.Q.Q.Q.!.!.Q.Q.",
"l.l.l.z.z.!.!.!.Q.Q.Q.x.[.[.!.Q.p.g.o   C A l.l.z.z.l.g.l.W.Q.Q.Q.Q.Q.z.l.z.x.Q.Q.Q.  # V &.].!.Q.Q.x.!.!.Q.].Q.!.!.!.Q.Q.Q.Q.Q.",
"W.z.x.x.!.!.x.Q.Q.Q.Q.!.!.!.Q.x.Q.^.+     > ^.z.!.!.Q.W.Q.Q.!.!.Q.Q.!.Q.Q.Q.Q.Q.Q.z.      F Q.Q.Q.x.Q.Q.Q.Q.Q.x.Q.[.!.Q.Q.!.!.!.",
"^.Q.!.!.!.!.Q.z.x.!.!.!.!.!.Q.Q.j 2       . 1 H !.~.!.!.Q.Q.Q.Q.x.!.!.!.Q.z.x.!.1 1       # 1 9.Q.].Q.x.x.Q.Q.Q.[.!.!.Q.x.].!.!.",
"^.[.!.!.!.Q.Q.Q.].!.Q.Q.Q.Q.!.!.y             z Q.Q.!.!.Q.Q.Q.Q.Q.Q.!.!.Q.Q.Q.Q.              4.Q.Q.Q.Q.Q.Q.Q.Q.Q.x.x.Q.Q.Q.x.Q.",
"^.Q.!.].x.Q.!.!.Q.Q.!.Q.z.x.G X     W.Q.!.g.  z !.!.!.!.~.!.~.Q.!.!.].Q.Q.E., X   o !.Q.Q.)   4.!.!.Q.Q.!.Q.Q.Q.Q.Q.!.!.].Q.Q.Q.",
"!.!.!.!.!.!.!.Q.!.Q.!.!.!.!.F   .   Q.!.!.g.  V Q.!.!.!.!.!.!.Q.Q.Q.{.{.t.N.-   . X |. X].I   -.x.!.}.].^.Q.W.!.^.[.~.Q.Q.!.}.!.",
"^.Q.!.!.Q.Q.Q.Q.Q.Q.!.Q.!.Q.F   s.Q.Q.!.!.f.      #.!.!.!.Q.Q.Q.Y.{. X|.S.A.;   V.V./.U.{.U       g.W.Q.Q.!.~.!.~.!.Q.!.W.~.!.!.",
"Q.Q.!.!.x.Q.Q.Q.!.].Q.Q.z.g.J : f.!.Q.Q.Q.g.- #   ) g.Q.].Q.Q.Q.Q.U.Z.Z.A.J.9 & F.M.q.,.P.P = o   0.i.g.l.!.!.Q.Q.!.W.g.Q.!.!.!.",
"^.Q.Q.Q.Q.!.Q.Q.Q.Q.Q.Q.4.  @.Q.!.Q.x.Q.Q.Q.!.;.      a.Q.Q.Q.Q. X XZ.N.n   M.K.H.M.<.*.P.g.d.d       g.Q.!.Q.z.Q.!.d   I.W.Q.!.",
"^.z.v.x.].].v.b.x.x.z.4.@.k 4.x.].b.Q.Q.x.].b.9.h >   s.Q.x.Q.].U J Z F B a  . .n.<...*.T.I.g.J l o   z.!.!.!.!.g.4.4   g.Q.Q.!.",
"^.z.z.Q.[.[.z.x.Q.].g.  h Q.].x.Q.x.!.b.Q.Q.x.z.!.C   s.x.Q.Q.Q.P       _ A.m.3.} | <.,.P.P.f.d.z.=   x.Q.!.x.z.P       h.!.!.!.",
"^.x.x.x.x.x.h.A J J K I ;.Q.x.Q.z.].[.x.x.z.z.k.x.5.I L H J J K M   0 D ] | >.| <.1.Z.Z.U.g.Q.Q.g.I L A A A A A p   C L h.!.!.x.",
"!.!.z.Q.x.z.d.+     = v.x.v.Q.x.z.x.x.[.].v.h.k.v.!.x.1             M U.,.%.1.>.%.*.T.U.P.f.^.^.d.p.p.              -.d.z.Q.Q.x.",
"!.].x.Q.x.C i .   i.i.x.Q.Q.x.Q.x.Q.x.z.].x.x.].x.x.b.1         > r.P.~.T.L.P.T.P.P.P.I.Q.^.l.p.p.d.l.          C 0.I.Q.Q.Q.].!.",
"~.z.Q.Q.Q.y       x.Q.x.Q.v.!.v.Q.Q.Q.Q.Q.v.Q.Q.].!.!.,         2 ].^.Q.I.I.I.I.I.P.l.l.Q.l.j.j.d.l.z.          K !.Q.!.!.Q.!.Q.",
"!.!.Q.!.!.z.I.z.I.!.Q.Q.Q.Q.Q.Q.!.Q.Q.Q.!.Q.!.Q.!.Q.!.I.I.z.I.  . @ # @ ;.W.^.^.Q.Q.Q.Q.Q.!.x.x.z.Q.!.I.g.g.I.Q.Q.!.!.Q.!.!.Q.Q.",
"^.!.!.!.!.!.!.!.].!.Q.[.!.!.Q.!.!.~.Q.!.!.!.!.!.!.!.!.!.!.!.Q.          -.Q.Q.Q.!.!.!.[.^.x.x.!.!.!.~.!.^.Q.!.!.!.!.!.!.!.!.!.!.",
"^.!.!.!.!.!.!.!.!.!.!.!.!.!.~.!.Q.^.!.!.!.!.!.!.!.!.~.!.~.!.!.!.!.!.Q.!.^.z.Q.Q.z.x.Q.Q.z.z.Q.!.!.~.!.^.!.!.~.!.!.^.Q.^.~.~.Q.^.",
"^.!.Q.!.~.!.Q.~.!.~.Q.!.!.!.!.!.Q.^.!.!.!.!.~.!.!.Q.Q.!.!.!.!.Q.!.!.!.!.Q.x.x.x.x.x.x.z.z.Q.z.Q.Q.^.Q.!.^.~.!.^.^.Q.^.Q.!.!.^.Q.",
"^.!.^.~.^.Q.^.Q.~.Q.Q.^.!.!.~.!.Q.Q.Q.^.~.Q.^.!.~.!.~.!.!.!.!.!.~.Q.!.!.Q.!.Q.z.].[.[.].].].].Q.!.~.^.^.^.^.~.^.~.Q.^.~.^.^.~.Q.",
"_._._.E.~._.(._._._._._.(._._._._._.(._._._._._._._._.(._._.(.(.|.|.E.(.{. X{.~.~.E.E.'.{. X(.(._._._._._._._._._._._._._._._._."
};
