/* XPM */
static char *c884d40bd1694f50ee012ceaa2cb66bfDtnStdDLQZ3qkkVT[] = {
/* columns rows colors chars-per-pixel */
"64 64 178 2 ",
"   c #81674F",
".  c #82684F",
"X  c #816750",
"o  c #856B52",
"O  c #886E54",
"+  c #877154",
"@  c #8B7354",
"#  c #8C7857",
"$  c #8D7558",
"%  c #8E7B59",
"&  c #90775B",
"*  c #927B5B",
"=  c #997C5C",
"-  c #937C60",
";  c #95815D",
":  c #9B835E",
">  c #9A8661",
",  c #9C8963",
"<  c #A38A63",
"1  c #A98D65",
"2  c #A48F69",
"3  c #A88F6B",
"4  c #A49067",
"5  c #AD9067",
"6  c #A49169",
"7  c #AB956B",
"8  c #AC986E",
"9  c #B19369",
"0  c #AF9771",
"q  c #AF9B70",
"w  c #B19773",
"e  c #B49C74",
"r  c #B69F79",
"t  c #B9A076",
"y  c #B7A378",
"u  c #BAA379",
"i  c #BEAD7F",
"p  c #C3AB7E",
"a  c #C6B17C",
"s  c #B4A986",
"d  c #BBAA85",
"f  c #B5AD8C",
"g  c #BCAF89",
"h  c #BCB68E",
"j  c #BBB594",
"k  c #B5B398",
"l  c #BBB59B",
"z  c #BDBA9B",
"x  c #BDBBA3",
"c  c #C5AE82",
"v  c #C4B484",
"b  c #CAB484",
"n  c #C4BA85",
"m  c #CCBB85",
"M  c #C5B58C",
"N  c #CCB78A",
"B  c #C7BA8E",
"V  c #CBBA8D",
"C  c #D2BA87",
"Z  c #D3BC8B",
"A  c #D9BF8B",
"S  c #C1B792",
"D  c #C4B993",
"F  c #CBBC93",
"G  c #C4BC9A",
"H  c #C9BE99",
"J  c #D2BF91",
"K  c #C2BDA2",
"L  c #D7C08A",
"P  c #DBC38D",
"I  c #CDC697",
"U  c #C6C09D",
"Y  c #CCC29B",
"T  c #D3C096",
"R  c #DEC692",
"E  c #D6CA96",
"W  c #DFC893",
"Q  c #D2C69D",
"!  c #DAC699",
"~  c #D6CA9D",
"^  c #DDCB9E",
"/  c #E7CE8E",
"(  c #EED08F",
")  c #E0C794",
"_  c #E3CB94",
"`  c #E9CF93",
"'  c #E0C698",
"]  c #E6CE99",
"[  c #E8CF99",
"{  c #E7D197",
"}  c #ECD295",
"|  c #E6D19E",
" . c #ECD39A",
".. c #EED99C",
"X. c #F3D493",
"o. c #F4DA97",
"O. c #F0D79B",
"+. c #F4DB9D",
"@. c #FADD9D",
"#. c #F4E09C",
"$. c #F9E09D",
"%. c #C5C2A3",
"&. c #C8C4A6",
"*. c #CFC8A0",
"=. c #C3C2AE",
"-. c #CECAAA",
";. c #D4CCA5",
":. c #DCCEA3",
">. c #D4CDAC",
",. c #DCCFA9",
"<. c #DED2A6",
"1. c #D6D0AF",
"2. c #DCD1AB",
"3. c #CDCAB1",
"4. c #CBCAB8",
"5. c #D1CDB5",
"6. c #D8CEB3",
"7. c #D3CEBC",
"8. c #D5D1B5",
"9. c #DAD4B5",
"0. c #D8D5B9",
"q. c #DEDBBC",
"w. c #E1CFA2",
"e. c #E4D2A4",
"r. c #EAD5A4",
"t. c #E7D9A6",
"y. c #EEDBA5",
"u. c #E4D4AA",
"i. c #E9D7A9",
"p. c #E6D9AB",
"a. c #EDDCAC",
"s. c #F0D7A0",
"d. c #F6DEA3",
"f. c #FCDFA3",
"g. c #F8DDA4",
"h. c #F8DEA4",
"j. c #F8DFA5",
"k. c #F5DEA9",
"l. c #F5DDAA",
"z. c #F2DEAD",
"x. c #F4DEAE",
"c. c #F9DBAA",
"v. c #F8DFA9",
"b. c #F8DCAA",
"n. c #E4D8B2",
"m. c #E5DBB7",
"M. c #EFDDB1",
"N. c #ECDDB2",
"B. c #EFDFB3",
"V. c #EEDEB6",
"C. c #E1D7BA",
"Z. c #E2DDBC",
"A. c #F2DEB1",
"S. c #F2DFB2",
"D. c #EEE1A6",
"F. c #EEE1AC",
"G. c #EFE1AF",
"H. c #F3E2A2",
"J. c #F7E2A2",
"K. c #F3E1A6",
"L. c #F4E0A4",
"P. c #F9E2A2",
"I. c #F9E2A5",
"U. c #FCE0A5",
"Y. c #F3E3A8",
"T. c #F5E2A9",
"R. c #F3E1AF",
"E. c #F9E1A9",
"W. c #FFE4A8",
"Q. c #F9E2AE",
"!. c #EEE0B2",
"~. c #F3E2B1",
"^. c #D5D5C3",
"/. c #DAD5C3",
"(. c #DED9C3",
"). c #DDD9CB",
"_. c #E2D9C2",
"`. c #E3DDCA",
/* pixels */
"c.h.h.h.h.d.L.h.h.d.d.d.h.h.h.d.+.d.h.h.+.P.d.d.h.h.d.d.d.H.h.h.+.@.+.P.h.@.d.d.h.h.P.h.+.d.P.L.T.T.Y.J.d.H.@.@.@.$.$.#.d.#.H.H.",
"c.h.h.h.d.h.h.h.l.h.h.h.d.l.h.d.d.d.d.d.d.h.d.d.+.P.d.@.d.d.d.d.d.h.h.d.d.d.H.d.h.h.h.d.h.+.+.O.y.s.y.J.d.d.+.+.@.+.+.+.+.#.#.r.",
"l.l.d.d.l.h.d.h.h.d.d.T.h.h.d.d.P.h.h.P.d.d.P.h.@.d.H.h.d.@.+.h.d.d.d.d.d.d.h.h.h.h.h.h.I.d. .} ..+.+.J.h.d. .} P.h.d.I.P.P.Y.P.",
"c.d.h.d.d.h.d.h.h.d.h.d.h.h.L.l.h.h.h.+.d.@.d.h.d.d.d.d.d.h.P.d.@.d.P.d.d.d.@.d.d.+.d.h.h.+.O.} +.O.+.+.d.O...{ h.d.h.+.h.#.+.#.",
"c.h.h.d.d.h.h.h.h.L.h.d.h.h.l.h.h.h.h.d.d.@.h.h.P.d.H.h.h.d.h.h.H.d.d.d.H.+.h.h.O.O.+.+. .} } X.( } X.h.c.d.b.l.R.R.z.l.P.h.d.H.",
"b.h.h.l.d.d.h.L.h.l.d.d.d.d.d.h.+.d.d.d.d.h.d.d.d.d.d.@.h.d.H.d.h.@.d.h.h.h.+.h.O.O.+.+.O.} O.+.X.X.O.O.d.A.A.A.M.!.M.z.l.l.b.I.",
"c.h.h.d.l.d.h.l.h.h.h.h.h.h.d.h.+.+.+.d.h.h.d.+.d.P.h.d.+.d.d.d.h.d.+.P.h.P.P.h.+.d.I.h.h.+.+.P.$.@.@.d.A.M.n.n.2.2.:.,.e.r.y.h.",
"b.h.h.d.h.h.d.d.d.h.l.h.h.h.L.d.O.O.d.d.P.h.d.+.h.+.d.d.P.h.d.@.h.d.h.d.d.+.d.h.h.h.h.h.P.d.h.h.@.@.U.h.A.V.m.C.8.>.,.,.r.i.x.b.",
"l.h.l.d.h.h.h.d.r.h.h.h.d.s.h.d.d.d.h.h.P.h.d.d.H.d.+.+.d.h.P.h.+.d.d.h.h.h.d.h.+.d.d.d.h.d.h.H.U.+.E.Q.i M 8.0.8.8.z D B b e.] ",
"l.h.L.h.h.L.d.d.l.H.h.h.h.h.h.l.d.d.+.h.d.h.P.+.h.h.d.d.+.d.h.h.$.h.P.+.H.@.d.d.P.h.P.@.P.+.d.@.@.d.E.~.F I 1.-.3.8.z G F B u.e.",
"b.h.d.d.h.h.h.h.I.d.d.d.h.h.h.h.d.+.+.d.d.h.h.d.h.d.h.h.d.+.+.h.d.h.d.h.d.d.+.h.+.h.d.d.d.d.h.d.h.d.s.R.^ ;.U j G %.h h D F w.i.",
"b.h.d.h.h.l.l.d.h.h.s.d.d.l.h.h.P.d.h.h.+.d.+.P.+.h.h.h.P.+.h.+.h.P.+.d.d.h.P.d.P.d.d.d.h.P.+.d.h.I.y.R.p.<.U D j U h D N V  .r.",
"b.h.h.h.l.h.h.h.l.h.h.h.h.I.I.h.h.h.I.h.+.d.+.h.h.P.h.h.+.h.h.h.+.P.d.h.+.P.h.d.h.d.H.h.@.h.d.d.+.P.+.L.R.G.<.<.u.u.u.i.e.r.l.Q.",
"b.h.l.d.d.h.d.d.d.h.h.h.O.s.h.s.+.+.h.h.H.+.d.h.h.+.+.+.h.h.h.h.d.h.d.d.d.h.P.+.d.d.d.h.d.d.d.@.+.P.+.L.y.d.| t.| e.r.| ] [ ..s.",
"z.d.h.h.d.d.h.h. .+.h.+. .} }  . ...d.d.h.+.+.h.h.+.O.O.+.h.h.h.d.d.d.d.d.h.h.h.@.h.d.h.d.d.d.@.$.$.o.$.} } ` { h.d.c.h.h.f.f.W.",
"b.h.d.d.h.d.d.h. .+.h.+.) A A _ `  .+.d.d.h.h.P.h.O.} }  .g.g.h.h.h.h.@.@.H.d.d.d.#.d.+...] ] _ o.+.o.$.`  .} } E.s.h.h.@.f.O.h.",
"x.h.r.h.l.h.h.h.h.h.h.r.u 9 0 Z e.r... . . .+.H.+.@.h.P.h.h.c.h.f.c.h.f.h.h.h.+.+.h.h.s.R w 0 r  .d.d.h.d.d.h.d.d.d.P.E.W.h.h.d.",
"c.h.h.h.h.h.h.h.h.+.r.R $ O + u R r.y.s...+.+.@.@.+.+.+.@.h.h.h.h.h.f.h.@.h.@.d.+.h.O.[ c o o $ L  .+.d.h.L.h.h.h.d.r.h.h.h.h.h.",
"l.h.h.h.h.h.h.d.h. .u * O $ , > > b d.+.+.+.+.P.I.I.P.U.h.U.I.h.g.g.h.d.d.d.h.h.O.+.Z , & % % % $ w _ h.h.d.h.d.l.d.r.+.s.h.h.h.",
"c.h.h.h.d.r.d.h.b.[ e o $ = , * $ p #.d.+.d.P.h.h.I.H.r.h.r.d.d.f.f.h.H.s.H.L.L.....m = + * % % o 7 _ h.h.l.d.d.h.h.+.+.s.s.h.h.",
"l.h.h.d.d.d.d.l.h.| w o < , ; @ # a #.#.P.L.L.T.l.Y.l.T.L.D.Y.D.d.H.H.s.D.h.Y.L.y.h.V = + % ; % o w ' h.h.h.h.h.d.d.h.s.L.h.h.h.",
"c.h.s.d.d.h.h.h.h.[ e @ 7 7 1 * * a #.#.+.d.l.a.z.a.a.M.!.a.D.D.d.y.Y.d.D.y.a.t.y.y.V - $ , < < o q W h.h.h.l.d.d.d.h.h.I.I.h.h.",
"b.d.O.O.s.d.l.d.h.[ e O 1 9 9 = * a #.T.x.a.u.u.,.,.2.2.<.;.~ E D.D.D.D.a.t.i.<.e.t.B = * 6 5 9 O 3 ) h.h.h.h.h.l.h.h.h.h.h.h.h.",
"b.O. . .d.I.I.+.h.[ e O < 1 7 > @ a s.T.z.p.,.>.6.6.9.8.1.;.Q I G.D.G.G.p.e.:.^ e.i.F - $ , 5 9 $ 7 _ h.l.h.h.h.h.d.h.s.h.h.x.h.",
"c.h.h.h.d.h.d.h.d. .w o # ; 6 ; * a T.~.~ ,.C._.`./.^.7.(.Z.0.;.n n a.M.<.,.M M M Z M - o * 1 9 O 3 _ h.h.h.d.h.h.d.d.h.h.h.h.h.",
"x.h.h.h.h.h.l.h.H.| e o ; > 6 ; & p y.!.;.n._._.).).^.^.^.^.0.1.B m A.p.<.;.M F M J M & + = 1 9 $ 0 _ h.h.h.h.L.d.d.d.s.d.h.h.d.",
"l.E.h.h.h.h.h.h.h.] e o % ; 2 * $ M ~.!.D j l x 4.^.^.4.=.x x G M b t.a.u.n.w.u.w.u.F - + % 1 9 @ 1 A `  ...h.L.l.h.d.d.h.E.h.l.",
"c.+.h.r.h.H.r.h.h. .w o # ; ; @ $ M ~.a.F S j x 5.7.7.3.K l l G B m ^ :.^ u.w.w.i.i.N * + ; 2 9 $ < C  . .O.s.L.y.s.d.d.s.s.s.d.",
"W R _ R _ R W W W Z 2 o > > , % $ r m J F F g s f f k f s s s s T V ! ! ! ^ R :.E E y $ + ; 1 5 O < c A P L L P P P W P P A P W ",
"6 6 6 6 6 6 6 6 7 , $ o 1 3 6 * o * 2 2 6 2 , > > > > > > > , , 6 2 4 6 2 2 7 5 7 6 ; o o ; , 7 O & > 3 4 4 6 4 4 6 6 6 4 4 6 q ",
", , > > , , , , , ; @ O 9 9 9 - O $ , , > , , < < < < < < < > , < < < , > > > > , > % o + ; , 6 @ o = , > , > > , , , , ; , , 6 ",
"6 2 6 6 6 6 2 6 2 , $ o 9 9 8 = O * 6 2 6 4 4 9 9 9 9 9 7 9 3 3 5 9 9 6 6 6 6 6 2 6 ; o + ; , 2 O @ > 6 4 4 4 4 4 4 6 6 6 6 6 8 ",
", ; : : : ; , : , > @ O 9 5 2 % X % : : , , , < < < 1 < < < , , < < < < : ; : , < : ; . @ ; ; ; + + ; , : , , : , , ; : , ; : 4 ",
"; ; ; ; ; ; ; % % @ o O 9 1 ; + X + ; ; ; # ; % # ; # # % % % ; % % % ; ; ; ; ; % % @ . + ; ; # . + # # # ; ; # ; ; ; ; ; ; ; , ",
"+ @ # # @ @ @ @ @ @ o o 5 5 ; @ . @ @ @ + # @ @ @ @ @ # # @ @ @ @ @ @ @ @ @ + @ # @ + . # : ; ; . . + @ @ @ @ # + # @ @ @ @ @ ; ",
"; ; : : ; ; : : : * O O 5 1 ; #   @ : : ; ; : : : : : : : : : : : : : : : : : ; : : # o * 4 , ; . . ; : : : : : ; ; : : : : ; , ",
"/ / _ { _ _ _ { _ L 7 o 6 , ; + @ u _ _ _ _ _ { / { _ ` _ _ _ _ / { { { / W { { _  .p & : 5 < % + 6 Z ` _ _ _ _ / { _ { / W { { ",
"{ W W W { E _ _ { A 7 O , > ; + $ y _ _ _ _ _ _ / W ] W W _ _ _ W W W W / W / W _ _ p $ = 5 < * o < m W _ R / _ W _ W _ / / / W ",
"8 8 8 8 7 7 8 7 7 2 $ o ; ; ; + o ; 8 8 8 8 7 7 7 7 8 8 8 8 7 7 8 8 8 8 8 8 8 6 8 8 > @ = 9 < * o @ 2 7 6 6 7 6 8 8 8 8 8 8 8 q ",
"; : , ; > > > > , ; @ X # ; > % o # , : , : < < , < , , : < < < : : , , : : , , , : $ o = 9 < ; o o * , , > , : : : < : , : , 4 ",
"6 6 6 4 4 6 6 6 6 , $ o # ; 2 * + * 6 6 6 5 9 9 9 9 9 9 9 9 9 9 9 9 9 9 5 5 6 6 6 4 ; + = 9 1 * o @ , 4 4 4 6 5 9 9 9 9 9 5 5 8 ",
", , , ; , , , , , > $ o : 2 6 = o % , , , 1 1 1 3 < 1 1 1 1 < 1 5 4 1 1 < 2 , , , 2 * o = 9 1 > o + ; , , , , < 4 4 1 < 1 1 < 7 ",
"; ; # ; # ; ; ; % @ . O 9 9 7 ; o + % % % % % % % % % % $ % % % % % % % % % % % % % @ o = 9 8 2 O o # % * % % % % % % % % % % : ",
"+ + + + + + + o @ o   O 9 9 7 ; o o + + + + + + + + + @ o @ + + + + + + + + + + + + o o = 9 5 2 o X + + + + + @ @ @ + + + + + ; ",
"& & & & # % % % & $ o O 5 8 7 = o O & & $ $ * * $ & * & & & & & # * * & & * $ & & * @ o = 9 9 2 @ o $ & & & * & & * & $ & # & < ",
") _ ) ) E R _ P R Z 3 O 2 6 7 ; & t _ ) _ R _ ) _ _ ' _ _ R _ R R _ _ _ ) R _ _ W _ c & = 9 7 7 @ , b ) ) ) _ ) _ _ ) R _ W ) _ ",
"d.d.d.+.+.d.+.d.d.` w O > 1 < * & c d.r.s.s.s.h.r.+.h.h.d.s.y.+.+.+.d.s.d.s.d.s.+.O.Z = * 1 1 < o 7 ) d.+.s.h. .+.h.d.+.d.+.+.+.",
"c.h.h.d.d.h.d.d.d.[ r o o @ O o & c I.I.I.b.h.h.h.h.h.h.h.I.l.h.h.h.h.d.d.y.l.l.l.l.V * O @ O O X 5 ) c.h.h.h.h.d.h.d.d.d.h.h.h.",
"d.d.h.h.h.d.h.h.h. .N t y r r e u L h.h.h.h.O.h.L.h.h.h.h.h.h.d.d.d.R.a.^ :.9.2.Y T ~ d t q t e r b r.h.h.d.r.I.h.h.O.h.x.h.l.h.",
"c.d.l.h.h.d.d.d.h.d. .] ` [ [ `  .O.h.h.h.l.h.h.I.h.h.h.h.h.h.d.d.L.~.!.u.1.8.-.>.>.,.^ [ _ X.} [  .r.h.I.b.I.b.b.h.d.l.h.h.h.l.",
"c.d.d.d.d.d.d.d.h.P.h.d.d.d.h.d.h.h.P.d.d.d.d.h.d.h.h.r.H.d.d.d.y.a.e.:.9.q.0.0.5.>.Q I e.{ } } f.s.} O.s.h.d.d.d.h.h.h.h.h.h.h.",
"h.+.d.d.+.h.d.P.O.L.h.d.+.d.d.d.h.h.+.h.d.d.I.h.P.h.P.H.d.+.d.h.~.R.:.:.Z.Z.8.8.5.-.U M e.{ } } f.+.`  .O.h.d.d.d.I.h.h.h.O.h.h.",
"c.+.+.$.P.I.P.+.h.#.P.+.d.@.d.+.P.h.@.+.h.H.P.$.+.h.@.d.+.P.H.h.a n v D >.>.z k %.z D M i.e. .{ b.h.+.+.h.I.h.d.d.h.I.d.r.d.d.d.",
"b.+.+.P.h.H.#.+.+.d.@.d.+.P.@.h.+.P.P.h.+.$.+.+.P.@.P.+.d.@.d.d.m V V Q >.>.&.K j j D Y e.e. .{ d.+.+.d.+.d.+.+.h.d.+.+.P.h.h.h.",
"b.+.+.+.@.+.O.} P.@.P.@.d.@.d.+.h.+.h.P.h.+.+.+.+.P.@.P.+.P.@.h.i.e.<.~ D S D j G H 2.<.i.| h.h. . .}  .O.O.O.O.h.+.O.O.+.h.d.d.",
"U.h.@.h.h.+.} ( +.d.+.P.+.P.+.P.#.+.@.P.$.+.O.O.h.+.d.+.h.+.d.d.} | u.e.I M H D M M u.i.e.] b.f.} } } } O.O.O.O.h.O.} } +.h.h.+.",
"I.d.P.+.P.+.+.d.P.d.+.$.d.$.P.+.d.+.P.h.@.H.+.$.@.h.@.h.+.H.d.d.L.z.z.i.i.w.w.i.e.e.] r.d.d.O.` ` } O.O. ...+.h.d.d.d.d.d.d.h.O.",
"c.@.d.d.d.d.d.d.d.@.h.d.h.+.h.h.h.H.h.+.h.+.h.d.P.+.H.+.h.+.d.d.h.h.b.d.s.r.r.r.r.r.r.O.s.d.O.` } O.s.O.+.+.h.h.P.d.h.d.h.d.I.L.",
"h.d.h.d.d.h.d.d.d.h.h.d.h.d.h.d.h.+.d.h.h.h.h.d.h.h.h.h.h.h.d.l.d.d.c.h.s.d.c.d.d.+.d.h.h.h.@.@.d.d.h.d.d.r.d.d.d.h.h.d.h.h.L.h.",
"l.h.h.P.d.d.h.h.L.L.h.d.h.P.d.d.h.l.d.d.h.d.h.d.h.h.h.L.d.h.h.d.d.d.c.h.h.+.h.c.h.h.f.U.h.h.@.f.c.I.b.h.d.h.d.l.h.h.h.h.h.h.T.h.",
"h.h.l.h.h.l.h.l.l.h.l.h.h.h.l.h.h.h.l.h.l.h.l.h.h.l.h.h.h.h.l.d.h.h.d.h.h.@.h.h.+.h.$.+.+.+.+.d.d.h.b.l.b.d.d.h.d.b.d.h.l.h.d.b.",
"c.h.h.h.h.h.h.d.h.h.h.h.h.h.d.h.h.l.h.h.h.h.h.h.h.d.l.d.h.h.h.h.h.h.H.d.h.+.@.+.+.+.@.d.#.d.r.h.d.d.d.h.h.E.c.h.b.d.b.h.h.c.b.d.",
"z.h.c.d.d.b.d.h.h.b.l.d.l.h.l.h.h.d.b.d.h.l.b.h.l.h.h.l.h.l.h.h.l.h.h.h.d.P.d.+.H.h.h.H.H.I.L.h.h.b.b.b.b.b.l.b.l.b.l.b.b.l.l.b.",
"z.A.A.a.A.A.A.A.A.M.A.z.A.A.A.M.A.z.M.A.A.A.A.A.A.A.A.A.A.A.M.~.!.!.a.z.R.R.R.A.l.R.y.G.~.R.!.M.A.A.A.A.~.A.A.A.A.A.A.A.A.A.A.M."
};
