/* XPM */
static char *_ca351e731444831c5bc7b93e10f718e9BLUztIaLJTNn4Xw[] = {
/* columns rows colors chars-per-pixel */
"64 64 187 2 ",
"   c #222034",
".  c #3B3947",
"X  c #57544F",
"o  c #575350",
"O  c #595651",
"+  c #635E5B",
"@  c #7F5756",
"#  c #67615D",
"$  c #6A6665",
"%  c #696566",
"&  c #6D6861",
"*  c #6E6A6B",
"=  c #7A7362",
"-  c #736E71",
";  c #787378",
":  c #9D3B39",
">  c #AC3230",
",  c #B9482C",
"<  c #DF7026",
"1  c #DD732B",
"2  c #D26F32",
"3  c #E07026",
"4  c #9F575A",
"5  c #B14C48",
"6  c #B25B4E",
"7  c #A1575A",
"8  c #AD575D",
"9  c #B6585A",
"0  c #916E52",
"q  c #BB745A",
"w  c #A96366",
"e  c #B97761",
"r  c #A8777D",
"t  c #C2454C",
"y  c #C64A51",
"u  c #CB4C55",
"i  c #CE4F58",
"p  c #D04F5A",
"a  c #C9545C",
"s  c #DB5F57",
"d  c #D1515A",
"f  c #DA5B5D",
"g  c #E07653",
"h  c #CF5761",
"j  c #D35762",
"k  c #D95763",
"l  c #C77464",
"z  c #E59F2C",
"x  c #CDA738",
"c  c #EFCD30",
"v  c #F1D132",
"b  c #F4DD35",
"n  c #EFE839",
"m  c #F4EA37",
"M  c #FBF235",
"N  c #918C4E",
"B  c #B89052",
"V  c #AFAB49",
"C  c #B0AB49",
"Z  c #BEB844",
"A  c #8B806A",
"S  c #938976",
"D  c #9F9479",
"F  c #BB8679",
"G  c #AD9B76",
"H  c #AD9D7A",
"J  c #AEA07E",
"K  c #B4A37E",
"L  c #BEAD7F",
"P  c #DE834C",
"I  c #D98A57",
"U  c #DC915D",
"Y  c #E1854D",
"T  c #E08D54",
"R  c #E1945B",
"E  c #C3BD49",
"W  c #DAAA55",
"Q  c #E7B04F",
"!  c #E3A654",
"~  c #E7B050",
"^  c #C3826B",
"/  c #C68E6C",
"(  c #C8926D",
")  c #DC9464",
"_  c #C88E75",
"`  c #C99471",
"'  c #CD9C77",
"]  c #E49C66",
"[  c #E29C6A",
"{  c #CDAA7D",
"}  c #E4A46A",
"|  c #E5A671",
" . c #E4B17A",
".. c #CEC741",
"X. c #E1DA40",
"o. c #7E7980",
"O. c #847F87",
"+. c #858086",
"@. c #BE8382",
"#. c #A0969D",
"$. c #B5A582",
"%. c #BCB68E",
"&. c #BBB594",
"*. c #B5B398",
"=. c #BEBA9B",
"-. c #9BA2AA",
";. c #9BADB7",
":. c #9BADB8",
">. c #B8B7B6",
",. c #D7AD83",
"<. c #C7B789",
"1. c #C4B68D",
"2. c #CABA8D",
"3. c #D9B488",
"4. c #C4B993",
"5. c #C6BC97",
"6. c #CBBD93",
"7. c #C4BD9A",
"8. c #D1BE90",
"9. c #E8BE87",
"0. c #ECBC85",
"q. c #E1BB8D",
"w. c #C3BFA1",
"e. c #CAC39A",
"r. c #CCC29B",
"t. c #D6C79A",
"y. c #EBCF8F",
"u. c #E4C392",
"i. c #EAC797",
"p. c #E6CD96",
"a. c #E9CD93",
"s. c #E3CE9A",
"d. c #E7D197",
"f. c #ECD295",
"g. c #E6D19E",
"h. c #EDD49A",
"j. c #EED99D",
"k. c #F3D493",
"l. c #F4DA97",
"z. c #F0D79A",
"x. c #F4DB9D",
"c. c #FADD9D",
"v. c #F3E097",
"b. c #F5E09C",
"n. c #F9E19C",
"m. c #CAC6A7",
"M. c #D8CDA6",
"N. c #DCCFA4",
"B. c #D3CDAC",
"V. c #DAD1AA",
"C. c #DCD1AB",
"Z. c #CFCBB0",
"A. c #C0C0BF",
"S. c #D0CEB4",
"D. c #D5D1B5",
"F. c #DAD5B5",
"G. c #DBD7B9",
"H. c #E9CFA2",
"J. c #E4D2A3",
"K. c #E9D3A3",
"L. c #E9D8A7",
"P. c #EEDBA5",
"I. c #E4D4A9",
"U. c #E6D8AA",
"Y. c #EDDDAB",
"T. c #F7DEA3",
"R. c #F8DDA4",
"E. c #F8DEA4",
"W. c #F8DEA5",
"Q. c #F4DEAA",
"!. c #F9DBAA",
"~. c #F8DDAA",
"^. c #E3DAB7",
"/. c #EEDEB3",
"(. c #F2DEB1",
"). c #EEE1A6",
"_. c #EEE1AC",
"`. c #F4E1A4",
"'. c #F9E1A2",
"]. c #F9E0A5",
"[. c #FAE1A4",
"{. c #F3E1AC",
"}. c #FAE2AA",
"|. c #F3E2B1",
" X c #EEEEED",
".X c #F2F2F1",
"XX c #FFFFFE",
/* pixels */
"!.E.E.E.T.Q.E.E.T.T.E.T.T.E.E.Q.c.T.T.c.T.T.T.E.T.T.T.E.E.c.T.T.T.T.T.T.T.T.`.c.E.E.E.E.c.T.T.`.{.`.).`.T.T.c.c.c.b.b.c.`.b.`.`.",
"!.E.E.E.E.T.E.T.Q.T.E.Q.`.E.E.E.T.T.T.T.T.T.T.T.c.`.T.c.`.T.T.T.`.c.c.`.T.T.E.T.E.E.T.T.T.c.c.z.).T.x.`.T.T.c.x.c.x.x.x.x.x.).b.",
"~.E.T.E.T.T.E.T.E.T.T.T.E.Q.T.E.E.E.E.T.T.b.T.E.T.c.T.T.T.T.T.`.E.E.c.T.T.E.T.T.T.E.E.E.T.T.j.h.j.x.T.`.T.x.h.p.].E.T.`.`.`.b.'.",
"~.Q.T.T.E.E.Q.T.E.E.T.E.E.T.T.T.].E.E.E.T.T.E.T.T.`.T.T.T.c.T.T.T.T.T.T.T.`.c.T.T.T.T.E.T.x.h.f.l.z.z.x.T.T.h.h.E.T.T.T.c.`.x.b.",
"~.E.T.T.T.E.E.T.E.E.T.T.E.T.E.T.T.T.E.T.T.T.T.T.T.T.E.c.T.T.E.c.`.T.T.T.E.T.T.T.z.z.x.x.h.f.f.k.y.f.k.x.E.!.Q.Q.(.(.Q.Q.`.E.T.T.",
"~.E.E.E.Q.T.E.E.T.E.Q.T.T.T.E.Q.x.T.T.T.E.T.T.T.E.T.`.T.T.T.T.T.c.T.T.c.c.T.b.T.h.x.x.x.h.h.z.x.k.k.z.T.Q.!.Q.(./././.Q.Q.Q.}.].",
"!.E.E.Q.E.E.T.Q.T.T.T.E.T.E.E.T.x.x.c.E.E.E.x.T.c.T.E.T.T.b.E.T.T.T.E.T.T.E.T.E.x.T.].E.c.x.c.`.n.c.c.E.Q./.^.^.V.V.N.J.J.K.T.T.",
"!.T.T.E.E.T.T.T.T.E.E.E.Q.E.E.`.z.h.T.E.`.c.T.T.`.T.T.c.T.T.T.E.T.T.T.`.c.T.T.T.T.E.].].].`.T.T.c.c.E.!././.^.^.D.B.B.C.I.U.Q.Q.",
"!.T.E.E.T.T.E.E.T.T.T.T.T.T.T.T.T.T.T.T.`.].T.x.T.T.T.x.T.E.E.E.E.`.T.T.T.T.T.T.T.E.c.T.T.T.E.c.T.T.}.|.L 1.D.F.D.D.&.4.2.<.K.s.",
"Q.E.T.Q.E.T.E.Q.E.Q.T.T.~.E.T.T.T.c.x.T.E.E.T.c.T.T.T.T.c.T.T.E.T.c.T.E.`.c.E.c.T.`.T.T.c.`.T.E.c.T.~.|.2.e.B.S.S.D.=.7.7.2.J.J.",
"!.E.T.T.Q.E.T.T.E.T.T.T.Q.T.~.E.T.T.c.T.T.T.T.T.c.T.E.T.T.x.x.E.T.c.c.T.T.E.T.c.T.T.T.T.T.T.T.T.T.E.T.).N.M.e.=.7.m.%.&.1.2.J.K.",
"Q.T.E.T.T.E.E.E.E.T.P.T.T.E.T.T.T.T.T.T.T.c.T.T.T.T.E.T.c.T.T.T.T.E.`.T.T.T.T.`.E.E.b.T.T.T.T.E.E.].j.Q.L.C.e.&.&.7.%.1.2.8.J.K.",
"!.E.T.Q.Q.E.E.T.!.T.T.T.E.T.E.E.T.`.].E.c.T.c.T.T.T.T.T.T.x.T.E.T.T.c.T.T.T.T.T.T.T.`.c.T.T.T.b.x.].x.{.{._.N.N.I.I.I.K.J.H.Q.}.",
"!.E.E.E.E.T.E.E.T.E.T.T.T.P.P.x.x.c.E.E.T.x.T.T.T.T.x.x.T.E.E.E.T.T.`.T.T.E.T.T.T.c.T.T.T.E.T.c.x.n.x.`.P.`.K.P.J.J.K.K.g.g.h.E.",
"Q.E.E.T.T.T.T.T.h.x.T.T.x.h.a.z.h.j.T.E.T.T.T.E.T.x.h.z.x.T.T.T.T.T.T.T.T.E.T.c.`.T.c.T.T.T.E.T.n.n.l.n.y.h.a.g.E.Q.R.R.R.E.E.}.",
"~.Q.T.T.T.!.T.T.h.x.T.T.h.a.a.f.p.h.j.T.T.x.T.c.`.l.h.h.x.T.T.T.E.E.c.E.c.`.T.E.E.T.T.T.T.E.E.c.c.v.l.n.y.h.f.a.E.E.R.R.c.c.c.E.",
"+ . . . . . . . . . . . . . . . . . . . . . . . . . . . . . . . . . . . . . . . . . . . . . . . . . . H T.T.E.`.E.E.E.E.!.E.].E.",
"o                                                                                                     G E.E.T.T.E.T.P.T.E.R.E.E.",
"H.K.H.J.J.J.K.K.J.K.K.K.K.K.K.K.s.J.J.J.g.g.g.g.r.  + K.h.J.K.K.K.K.J.g.g.K.L.g.s.s.K.K.K.K.K.H.J.K.K.T.T.Q.T.E.Q.T.T.j.x.E.E.~.",
"!.Q.E.E.T.T.E.E.T.T.T.E.E.T.T.T.T.b.b.T.c.T.T.'.u.  + x.E.E.T.T.E.T.T.T.T.T.`.`.h.j.x.x.E.x.x.x.T.E.E.T.T.E.T.E.E.E.j.x.P.E.E.E.",
"!.R.T.T.T.T.T.R.E.T.T.E.T.E.E.c.n.n.v.b.`.`.h.I P 2 2 I ) {.{.`.T.x.`.`.).`.{.{.P.E.{.`.`.n.n.E.T.E.T.Q.E.E.E.Q.T.T.E.E.E.E.T.T.",
"!.T.T.T.T.E.T.R.E.E.T.Q.E.].T.E.n.n.v.j.T.T.i.3 3 3 1 3 P ).).`.`.).`.).).P.P.Y.P.P.P.T.b.n.v.n.T.E.T.E.E.T.T.T.E.T.E.~.E.E.E.T.",
"!.P.z.z.T.E.R.T.T.Q.T.E.E.E.E.c.v.v.b.`.i.R ! b b b b b v I ) t.).).).).).L.L.J.J.P.P.T.`.x.v.l.c.E.E.T.T.Q.E.T.T.s.q q q ^ E.E.",
"!.x.h.f.P.!.T.T.T.T.E.E.E.E.E.c.v.v.`.E.i.3 z M M M M M m 3 2 r._.)._.Y.U.J.N.t.C.I.Y.{.`.'.'.b.T.T.T.T.T.T.E.E.T.u.> > > 9 E.E.",
"!.T.T.T.T.E.T.E.E.E.T.Q.y.R ] ] ] ] } [ U 1 1 z z z z z z 3 1 ) U U [ [ ) [ U U U 1.g.g.j.`.l.'.x.T.E.E.~.E.E.q.l F #.#.#.#.^ _ ",
"!.T.T.T.T.E.T.Q.E.T.T.T.| 3 3 3 3 3 3 3 1 1 3 < < < < < 3 3 3 3 < 1 < < < < < < < 3.J.P.`.}.x.b.E.Q.E.E.].E.E.q.> w :.:.:.-.> 6 ",
"!.E.T.Q.Q.E.T.T.E.E.1.D 0 4 E v v v v v v v v v v c b c v v v v v v v v v v c v v } | } } [ ] 9.a.h.f.h.h.x.T.q.> w :.:.:.-.> 6 ",
"!.E.E.E.T.E.T.E.E.E.H O O o C M M M M M M M M M M M M M M M M M M M M M M M M M M z < < 1 < <  .h.a.a.a.h.x.E.9.> w :.:.;.-.> 6 ",
"!.T.T.T.E.Q.E.E.6.H S ; % o Z M M M n V V V V V E M M M n C C C V C V m M M M M M v c c c c c W ( ( / / / / / l > 5 r O.r r ,.3.",
"Q.T.T.E.E.E.E.T.H O ; O.* o Z M M M ..O o o O O N M M M n O O O O O O n M M M M M M M M M M M x > > > > > > > > > > > > > 6 c.}.",
"!.T.T.E.T.T.1.$.S - o.O.* o B ~ ~ ~ I O O - * O 0 ! ~ ~ W O O ; - O O W ~ ~ ~ ~ Q Q ~ ~ ~ ~ Q P y y y y y y t y u t > 6 ,.3.E.}.",
"!.E.Q.E.T.E.S O ; O.O.O.* o 7 k k k 7 O * O.; O 0 d j k a O O O.+.O O h k k k k k k k k k k k k k k k k k k k k k p > q T.E.E.E.",
"E.E.E.].1.$.= O % - * - # O 8 k k k 8 O + - % O @ k k k h O O - - O O j k k k k k k k k k k k k k k k k k p t t y h ' 3.E.E.c.T.",
"E.c.E.n.A O O O O O O O O X 8 k k k 8 O O O O o @ k k k h o O o O O O h k k k k k k k k k k k k k k k k k u > > > e T.c.E.E.T.T.",
"E.E.u. .e 4 4 7 4 7 4 7 4 4 9 k k k a 4 4 7 7 7 8 k k k j 7 4 7 7 7 4 j k k k k k k k k k k k p y u y y u l ' ' ' ,.E.`.`.T.T.E.",
"E.E.Y < f k k k k k k k k k k k k k k k k k k k k k k k k k k k k k k k k k k k k k k k k k k t > > > > > / T.T.`.'.T.T.E.T.T.c.",
"0.0.g s k k k k k k k k k k k k k k k k k k k k k k k k k k k k k k k k k k k k k k k k k d u l / _ ` ` ` 3.T.E.`.T.T.T.c.T.T.T.",
"Y 1 f f k k k k k k k k k k k k k k k k k k k k k k k k k k k k k k k k k k k k k k k k k t > { c.E.E.E.x.x.x.T.c.T.T.c.T.T.b.T.",
"Y 3 f k k k k k k k k k k k k k k k k k k k k k k k k k k k k k k k k k k k k k k k f p u l ^ u.E.E.E.x.z.f.z.k.T.T.E.T.c.T.E.T.",
"P 3 f k k k k k k k k k k k k k k k k k k k k k k k k k k k k k k k k k k k k k k k k 5 > 3.T.T.x.E.E.z.f.f.a.f.T.E.`.T.T.T.E.T.",
"[ R s s s s d i i i i i i i i i p i i i i i i i i i i i i i u i i i i i u i i i i i i l ^ u.c.T.h.j.c.E.T.T.j.h.z.z.T.T.T.E.T.c.",
"h.h.Y 3 1 < , > > > > > > > > > > > > > > > > > > > > > > > > > > > > > > > > > > > > 3.T.T.T.T.z.x.c.E.T.c.x.j.z.c.c.T.T.T.T.T.",
"h.a.] T T U ^ q q q q q 6 : w @.@.@.@.@.@.@.@.@.@.@.@.@.@.@.F : : q q q q q q q q q q u.c.T.`.T.x.T.T.E.T.T.T.x.T.T.T.`.T.T.T.T.",
"x.h.z.x.c.c.n.n.E.x.x.T.K X A.XXXXXXXXXXXXXXXXXXXXXXXXXXXXXXXXo X T.T.x.z.x.T.T.T.T.'.`.T.E.T.c.T.T.T.E.E.T.T.c.T.T.T.c.T.T.T.T.",
"T.x.T.c.`.T.f.s.T.T.T.T.K O A.XXXXXXXXXXXXXXXXXXXXXXXXXXXXXXXXo X P.E.T.T.s.g.c.T.E.T.T.T.T.T.T.T.T.T.c.T.T.T.T.E.'.E.T.c.T.T.E.",
"T.T.T.E.E.c.S O 8.E.T.T.K O A.XXXXXXXXXXXXXXXXXXXXXXXXXXXXXX.Xo X T.E.E.|.0 O t.`.T.T.T.T.T.T.T.T.T.c.T.c.T.T.T.E.E.E.E.T.T.T.E.",
"Q.E.E.E.T.T.G % 6.Q.Q.E.K O >..X.X.X.X.X.X.X.X.X.X.X.X.X.X.X Xo X P.~.E.{.S & d.c.T.T.`.T.c.T.T.T.T.T.T.T.T.T.T.T.T.T.T.T.c.T.T.",
"!.E.E.T.T.T.`.T.H O O O O O O O O O O O O O O O O O O O O O O O X o o O O N.{.{.Q.Q.T.T.`.E.c.T.T.T.E.T.E.T.E.T.T.c.T.E.`.T.T.E.",
"T.T.E.E.E.E.T.T.$.& & & & & & & & & & & & & & & & & & & & & & & & & & & & 5.F.C.r.r./.|.].x.].c.T.E.}.E.!.T.T.T.Q.T.T.T.T.T.Q.T.",
"~.T.Q.E.T.T.T.T.T.T.T.E.T.E.T.T.E.T.E.E.E.E.T.}.T.E.E.E.T.E.E.T.T.P.|./.I.D.B.Z.B.M.^.P.Q.c.].n.].E.T.T.T.E.T.~.Q.E.T.!.Q.T.Q.T.",
"E.E.E.T.c.T.T.T.T.T.T.T.T.T.E.T.E.c.T.T.T.T.T.E.T.T.T.T.`.T.T.T.P.Y.J.N.F.G.G.G.S.m.e.r.g.f.f.f.E.P.f.f.j.T.T.T.T.E.E.E.T.T.T.T.",
"!.T.x.T.T.T.T.T.T.T.T.T.T.T.T.T.E.E.T.T.T.T.`.T.c.T.T.T.T.T.T.T.|.{.C.V.^.^.D.Z.S.B.e.1.g.g.d.f.E.x.h.g.T.E.E.T.T.E.E.E.T.T.T.E.",
"E.T.x.c.T.`.`.c.c.T.c.T.c.`.b.T.`.b.T.T.c.`.c.`.T.c.T.b.T.c.T.T.{ { %.e.M.S.7.*.w.7.&.1.J.J.h.h.E.E.x.x.E.E.`.T.E.E.E.E.T.T.T.T.",
"~.T.x.T.'.`.b.x.T.c.`.c.T.x.T.c.T.c.E.n.T.T.c.c.c.`.T.c.x.T.`.T.1.e.e.e.M.B.m.w.&.&.7.6.J.g.h.g.T.c.T.c.T.T.T.x.E.T.x.x.T.T.T.T.",
"~.c.x.T.E.x.l.f.b.T.x.`.T.T.T.c.x.T.c.'.c.x.x.l.T.x.`.c.`.c.T.T.j.J.p.t.5.4.4.&.7.5.C.J.L.K.T.T.f.h.h.h.h.z.z.k.E.x.z.z.x.R.T.T.",
"R.R.c.c.c.z.h.y.c.T.c.`.c.c.c.`.c.c.`.`.`.x.z.j.c.T.c.`.c.`.c.T.g.g.L.g.6.1.5.6.1.4.I.J.K.s.!.R.f.a.f.f.h.z.z.j.E.z.f.f.h.R.R.T.",
"E.T.c.T.x.T.T.T.T.x.T.c.`.T.c.`.T.T.T.T.c.T.b.T.`.T.c.T.T.c.T.T.).Q.Q.Y.J.J.J.I.J.K.J.K.T.T.z.a.a.a.z.h.h.j.T.E.T.T.E.T.T.T.T.T.",
"Q.c.T.`.T.c.T.T.T.`.T.c.T.c.T.c.E.T.T.c.T.x.T.T.T.c.T.T.T.T.T.T.T.E.Q.!.P.K.K.H.K.H.J.x.P.T.z.k.h.z.x.x.x.x.T.T.T.E.T.T.T.E.E.T.",
"Q.T.T.T.E.T.T.E.`.T.T.T.T.T.T.T.E.T.E.E.T.T.E.T.T.T.`.E.T.T.T.E.T.T.T.E.T.P.E.!.T.T.T.T.T.R.c.c.T.T.T.T.T.P.T.T.T.E.E.E.E.E.T.T.",
"E.T.T.E.E.T.T.E.T.E.T.E.T.E.E.E.E.T.E.T.T.T.E.T.T.T.T.T.E.T.T.E.T.T.E.E.R.T.R.E.E.E.E.T.E.c.c.E.T.T.!.R.R.T.T.E.E.E.E.E.T.E.Q.T.",
"!.E.E.E.E.E.Q.E.E.E.E.E.E.E.E.E.E.T.Q.E.E.E.E.E.E.T.T.Q.E.E.E.E.E.E.T.T.R.c.R.c.c.T.c.c.x.c.c.T.T.~.T.~.E.T.Q.~.~.T.T.~.Q.E.Q.E.",
"!.E.E.Q.E.~.E.E.Q.E.Q.E.T.{.Q.T.~.T.E.E.E.E.Q.E.E.E.E.E.E.E.Q.E.Q.E.E.T.R.x.R.x.c.c.x.T.x.j.T.T.T.!.~.T.E.~.E.~.T.T.Q.E.E.Q.~.T.",
"!.E.E.Q.T.T.T.~.T.~.Q.E.Q.E.E.Q.T.T.T.~.Q.T.E.~.Q.E.Q.E.E.Q.E.Q.`.T.E.E.T.E.x.c.'.`.`.`.`.`.`.Q.~.~.T.~.~.~.Q.~.~.~.~.~.Q.!.~.T.",
"/./.Q.(.(.(./.Q.(.(.(.(.Q./.Q.(.(.(./.(.(.(.(.(.(.(.(./.(.(.(.(._././.(._.|.Q.Q.Y.Y.Q._.|.|.Y./.(.(.(.(.(.(.(.(.(./.(.(.(.(.(.(."
};
