/* XPM */
static char *b752429475c745bca708b7c527ee08942QtWTk8C7VJpgjbR[] = {
/* columns rows colors chars-per-pixel */
"64 64 211 2 ",
"   c #2A2736",
".  c #2B2A39",
"X  c #392F34",
"o  c #39293B",
"O  c #462B39",
"+  c #5C2C36",
"@  c #46313B",
"#  c #543235",
"$  c #57313A",
"%  c #7C2F2E",
"&  c #6A3638",
"*  c #793A37",
"=  c #68473F",
"-  c #7A4637",
";  c #383743",
":  c #4E3345",
">  c #5B3145",
",  c #653246",
"<  c #633248",
"1  c #6C3748",
"2  c #7D3541",
"3  c #793844",
"4  c #354E71",
"5  c #5E5150",
"6  c #6C4B43",
"7  c #6F544D",
"8  c #70564E",
"9  c #675552",
"0  c #7C5D52",
"q  c #7B685F",
"w  c #72656A",
"e  c #6D6C71",
"r  c #7C6B72",
"t  c #767277",
"y  c #747379",
"u  c #8E3B37",
"i  c #82383E",
"p  c #8E3B38",
"a  c #903E37",
"s  c #AA3325",
"d  c #B93A23",
"f  c #844335",
"g  c #8A4036",
"h  c #944336",
"j  c #984835",
"k  c #964838",
"l  c #8A5730",
"z  c #B34C30",
"x  c #B07230",
"c  c #C3411D",
"v  c #DF5A18",
"b  c #D8591C",
"n  c #E35D16",
"m  c #E86116",
"M  c #CB5423",
"N  c #E66B30",
"B  c #8E5149",
"V  c #8B5B48",
"C  c #9D5548",
"Z  c #B05A46",
"A  c #AC6F58",
"S  c #846F65",
"D  c #90686D",
"F  c #A67C63",
"G  c #A96E79",
"H  c #C25F40",
"J  c #C37B55",
"K  c #CA6F73",
"L  c #B6832B",
"P  c #E3841F",
"I  c #D8922A",
"U  c #D38C31",
"Y  c #E49126",
"T  c #E2A229",
"R  c #F4AC22",
"E  c #ECA73E",
"W  c #9B817B",
"Q  c #B78A6D",
"!  c #A38779",
"~  c #BEAD7F",
"^  c #DC954B",
"/  c #CC855C",
"(  c #DC9356",
")  c #E19450",
"_  c #DEA255",
"`  c #CE8A63",
"'  c #D68D62",
"]  c #D9946A",
"[  c #C59475",
"{  c #D19876",
"}  c #DC9A72",
"|  c #DCA27E",
" . c #C7B47E",
".. c #E0A27A",
"X. c #7E7E81",
"o. c #5176B8",
"O. c #537BBE",
"+. c #926D98",
"@. c #A87490",
"#. c #678FB5",
"$. c #4F99D3",
"%. c #529ED9",
"&. c #54A4E1",
"*. c #8A8789",
"=. c #988688",
"-. c #8C8B96",
";. c #9A999C",
":. c #AA9086",
">. c #BA9A82",
",. c #A4989A",
"<. c #B09294",
"1. c #BCB68E",
"2. c #BBB594",
"3. c #B8B399",
"4. c #BEBA9B",
"5. c #8498B1",
"6. c #A9A6A8",
"7. c #ACABAD",
"8. c #BCB4A9",
"9. c #ACAAB9",
"0. c #B8B4B5",
"q. c #BCBABC",
"w. c #C89C8A",
"e. c #C4A58D",
"r. c #DCA588",
"t. c #C7B788",
"y. c #C3B68D",
"u. c #CBBB8D",
"i. c #C1B792",
"p. c #C4B993",
"a. c #CBBD93",
"s. c #C4BD9A",
"d. c #C9BE99",
"f. c #D7B49A",
"g. c #DDBA9D",
"h. c #E6AD86",
"j. c #E4AB88",
"k. c #E2B299",
"l. c #E9BA9C",
"z. c #C7ABA3",
"x. c #C6B9A2",
"c. c #CDBCB1",
"v. c #EABFA5",
"b. c #C6C09D",
"n. c #CCC29B",
"m. c #D5C89E",
"M. c #E7CF93",
"N. c #E9CF93",
"B. c #EDCE92",
"V. c #E5CE99",
"C. c #E7D197",
"Z. c #EBD295",
"A. c #E6D19E",
"S. c #EDD49A",
"D. c #EED99D",
"F. c #F3D493",
"G. c #F4DA97",
"H. c #F0D69B",
"J. c #F4DB9D",
"K. c #F9DD9D",
"L. c #F3E097",
"P. c #F5E09C",
"I. c #F9E19C",
"U. c #CAC6A7",
"Y. c #D9CCA6",
"T. c #DCCEA4",
"R. c #D4CCAC",
"E. c #DCD0A9",
"W. c #DCD1AB",
"Q. c #CBC7BA",
"!. c #D6CAB2",
"~. c #D5D1B5",
"^. c #DBD5B5",
"/. c #DBD7B9",
"(. c #E8C7A7",
"). c #F3CAAC",
"_. c #E4D2A3",
"`. c #EAD5A3",
"'. c #EDDAA4",
"]. c #E4D4AA",
"[. c #EAD7A8",
"{. c #E6D8AA",
"}. c #EEDCAC",
"|. c #F7D2A6",
" X c #F7DEA3",
".X c #F8DEA4",
"XX c #F4DEAA",
"oX c #F8DCAA",
"OX c #E7CCB5",
"+X c #E1CCBC",
"@X c #E3D9B7",
"#X c #EDDCB2",
"$X c #F2DEB1",
"%X c #F9D9B5",
"&X c #EFE1AF",
"*X c #F5E1A3",
"=X c #FAE1A4",
"-X c #F3E1AC",
";X c #FAE2AA",
":X c #EEE0B2",
">X c #F4E2B1",
",X c #DCCCC3",
"<X c #D4CBCC",
"1X c #E2D9C2",
"2X c #ECDFD2",
"3X c #E2DDD9",
"4X c #ECE2D9",
"5X c #F3E0D5",
"6X c #EDE8E2",
"7X c #F6EBE5",
"8X c #FBFBFB",
/* pixels */
"oX.X.X.X.X.X.X X.X X.X.X.X X.X XK. X XK.=X X X=X X=X X X X XK.=X XJ.*X X X XK.=X.X=X X.XK. X.X;X-X-X*X*X X XK.K.K.I.P.P. XP.*X*X",
"oX.X.X.XXX X X X.XXX.X.X X X.XXX X X X X X XK. X XJ. X X X*X X X X=XK. X X X X X X X X X X XJ.J.D.*XD.*X.X XK.J.K.K.J.J.J.P.*X*X",
"XX X.X X X X.X.X.X X X*XXX X.X X X.X=X XJ. X X X X XK.*X X XJ.=X X*X X XJ.=X X X X X X.X=X XH.Z.D.D.*X*X XJ.H.C.=X.X X*X=X*XP.*X",
"oX X.X X.X X X.X X.X XXX.X X.X X=X X X X=X X=X XK. X X XK. X=X X XK. X X=X X=XJ. X X X.X XJ.F.Z.G.G.J.D. X'.S.C. X X X XP.J.P.D.",
"oXoX.X.X.X.X XXX.X*X.X X.X X*X.X X X X X XK. X X=X X=XJ.=X X X X X X X X X=X X XS.H.J.J.D.Z.Z.F.N.F.F.J.oX XXXXX>X-XXXoX*X.X.X X",
"oX XoX X X.X X XXX X X.X.X X X.XJ. X X X X=X X X X X X XJ. X X XK. X*XK. XJ.I. XS.J.J.J.F.Z.H.J.F.F.G.J. X$X$X$X#X#X#X#XXXXX;X;X",
"oXoX X X XXX.X.X.X.XXX.X X X XXXJ.J.K. X X XJ. XJ.*XK. X=X XI. X X X=X X X X X XJ. X=X.X XJ.J.=XI.K.K.oXXX$X#X@XW.E.Y._._.`.'. X",
"oX X X X.X X.X X X.X X X.X.X.X.XH.H. X X X=X X X=X X X X X X X X X*XJ.=X X X X X X X;X.X=X*X X XK.K..XoX$X@X@X@X~.R.E.E.].[.XXXX",
"XX.X X X.X XXX X X X X X X X X X X X X X=X X XJ. X X XK.K.=X X X X X X=XJ.=X XJ.=X=X X X X=XJ.K..XJ.;X-X~ 1.~./.~.~.2.p.u.t._._.",
"XXXX X.X X.X.X X.X X X X X X XoX XK.J.=X X X=XJ. X X X X X X X X XK.J. X X X X=X XJ. X X X=X=X XK. XXX>Xn.n.R.R.~.~.4.s.p.u.`._.",
"oX.X.X X X X X.X.X X X X.X.X X XJ. X X X X XK. XJ. X X X XJ. X X X*X=X X=X X X X X XK.*X XJ.J.=X.X.X X>Xm.m.b.4.4.U.1.2.y.u._._.",
"oX.X.XXX X.X X.XXX X X'. X.XoX X X X X X X X X X X X=X XJ. X X X XK. X XJ.=X XK.I. X X X X X=X X X=XD.-X{.].n.1.2.s.1.y.u.u._.`.",
"oX.X.X.X X X X.X*X.X.X.X.X XoX.X X X=X=X XJ.J. X X.X.XK. XK. X X X XK. X=X X X X X X X X X=X XK.J.=XJ.*X-X:XT.T.].{.].]._.`.oX;X",
"oX.X X.X.X XXX.X X.X.X.X X'.'.J.J. X X X=XJ.=X X X XJ.J.J. X X XK. X X XK. X*X X X X X X XK. X=XK.=XJ.*X'..X`.'._.`.`.S.V.V.D.|.",
"oX.X X.X.X.X X XS. X|.J.J.S.N.H.Z.D. X X XJ. X X=XJ.H.H.K.oX.X X*X X X X X=X X X X XI. X X X XK.I.I.G.P.Z.Z.N.V. XXXoX.X.X.X=X=X",
"oX.XXX X.XoX X XS.D. X XH.N.N.N.M.S. X.X.XJ. XK.=XH.Z.S.J..X.X.X X.X X X X XK. X X X X X X X X XK.G.J.I.N.S.N.N. X X.XK..XK.K..X",
"XX.X X X X X.XoX.X X X XXX.X.X X`.`.A.S.S.D.J.I. XK. X X X.X.X.X.X|..X X.X XJ. XJ. X X XoX|.oXoX XK. X X X X X X XXX XoX.X.X.X.X",
"XX.X X X X X.X.X.X.X X.X X.X.XXXD.'. X'.D.H.J. XJ.J.K. XK. X|. X.X.X.X X.XJ. X XJ. X X.X.X.X.X.X X*X=X X.X X.X X.X X X'..X.X.X X",
"XX XoX.X X X X X XXX.X.X X*X.X X X X'.J.J.J.J.=X*X=X.XoX.X0.# # + # # }.K. X X XH.H.J..X.X X.XoX.X X.X.X.X X X X*X X XJ.J. X.X.X",
"oXoX X.X X X X.X X.X X.X.X X.X XJ.P.P.*X*XK. X*X X.X Xq.& - j j j j h - & }.*X*XD.J.J. X XK.J.J. X.X.X.X.X.XXX X.X.X'.J.J.oX.X.X",
"oX.X*X X'. X XoX.X X X.X.X.X X XI.I.P.P.P.*XXX.XXXXXQ.* k k u a a p p j j & *X*X'.*X*X*X*XJ.I.K..X X.X XXX.X.X.X X X'. X X.X.X.X",
"XX X X|. X X X X X XXX*X.X*X XJ.I.L.P.D. X X}.}.#XQ.V 8.3 G <.2 2 <.D p u k S OX}.'.'.*X*XP.I.K. X X X X X.X.X.X X X X XoX X.X X",
"oX XH.H. XoXoX X.X X X X.X.X.X XL.L.P.*XXX}.].].T.  ,X(.7.+XOX0.q.+X,XD 3 <Xg X._.'.}. XP.P.L.L. X.X.X.X.X X.X*X X X X X.X.X.X.X",
"oXD.S.C.J. X X X.X.XXX X.X X X XL.P.P.-X$X{.E.R.q.i 8.!.4X%X2X+X,X2X3X<X6.|.c.X.E.].}.-X*X=XI.I.J.*X.X.X X X XXX XoX X X XXX.X.X",
"oX X XoX X X XXX.X X X.X X X X XP.*X-X&Xm.E.@X1Xy h B w.z.+Xw.OXz.:.3X|.6Xf.B.<X0.u.A.A.D.*XJ.=X X X.X X.X X X X X X XoX X XoX X",
"XXoX X X.X.X.X X.X.X X X X X XXX*X'.'.&XY.@X1X1Xy p C ..| r.| j.{ J =.2X,.r 3XX.*.n.`.'.*X;XJ.*X X.X.XoX.X XoX.X X XJ. X X X X X",
"oX.X X XXX.X.X X.XXX X X X X.X.X*X-X>X:Xy.2.4.8.y O $ 7 7 6 8 6 6 = @ e : ; r * -.{.&X-X-X'.Z.M.N.N.N.S.S.J.J..XoXoX X X X X.X.X",
"oX.X.X.X X X X.X X X X X.X.X.X.X X>X>X:Xn.i.2.x.y p 5 f.q e.V / V w.q f.5 / C j.[ 7.}.-XXX XD.Z.N.Z.N.S.V.J.oX.X'. X X X X X.X.X",
"oX X.X.X.X XXX.X X X X XoX X X XXX XV.`.(.T.n.y.t p 9 g.S e.! ).! e.S g.5 j.C ' [ 6.A.C.S.Z.S.Z.J.J.S.S.H.S.H.J.V.J. X'.S.C.J. X",
"XX X X.X X.X X.X X X X X X X X XoX.XN.S.A.A.u.t h p 0 g.g.>.F h.F >.g.k.0 j.k J h f ,.S.Z.Z.Z.Z.H.H.H.H.D.S.S.V.H.J.oX XS.S.J.oX",
"oX X X.XXX X.X X X XS.D.S.'.|. XG.;XK..X.X X*.h p p ` 6 9 :.k.v.k.:.8 6 ` h.p p u h f 0.P.J.;X=X|. X XoX.X*X=X=X|. X X X X X XoX",
"oX XoX.X.X.X X XXX XS.M.N.S.J.=XK..XG..X.X7.f a p * h.] k.8X8X8X8X8Xk.] h.j.p p u u h & #XD.=XJ. X X X X.X.X.X X.X X X X X.X.X.X",
".X X XI. X XI. X X X=X X X XK. X X X X.X X7.* p i < h.j.l.7X8X8X8X7Xl.h.h.h.i p p u p & {. X X X XK. X X X=X X.XK. X X X=X X X X",
".X X X X X X X XJ.=XJ. X X X*X X.X X.X.X X7.3 2 , , ..h.h.(.5X5X5X(.h.j.h...1 p p u p & @X X X X X X X X X X X X X X X XK. X XI.",
"oX X X X X X X X=X XJ.=X XK. X X.X.X.X.X X7.> < < < A ..h.h.j.j.j.h.h.} } ' 1 i u u i $ {. XK. X X=X XK. X X X X XI. X X X X X X",
".X X XK.=X XK.=X X X X X X=X X*X X.X.X.XoX Xt > < , 1 A } } } } } } } ' ' C < , 3 3 , ,.oX X X X X X X XK. X X X X X X X=X X X X",
".X X X X X X X XK. X X XJ.=X XK. X XXX.X.X X Xe O O < 3 H H H H H H H H H o < < , > -. X X X X XK. X X.XK. X X X X X X XK. X XI.",
"oX X X X X X X X*X XK. X X=X X X X.X X.X.X.X.X XoX  , M s 2 2 z v v v v v s o o o ;.I. X X=XK. XJ. X X XJ.J.J.J. XK.=X X X X X X",
".X=X X X XI. X XI. X*X X X X=X X.XXX X.X.XXX.X.X.X. b b l T Y x a c c c c +   y =X X X=XJ.=X X X X X XJ.H.Z.H.H. XI. X XI. X X X",
".X X XK. X X X X X X X XK. X X X.X X X X.X.X.X.X*X. n s X x R R Y Z u + O ` P I ;. X XJ.=X X*XK. X X XJ.Z.Z.N.Z. X X X X X X X X",
"S.Z.N.F.S.J.|..X.XJ.J.H.J..X X X.X.X XJ.N.N.N.H.N.. d m N Q x U I ) = | h.  ( T -. X X.X*X X X XH.H.K..X.XJ.H.S.H.H. X X=X X XJ.",
"Z.Z.Z.Z.H.J. X X XJ.J.H. X.X X X'. XXX X'.H.S.S.S.H.w s Z Q x U I ^ - [ N d ; -.K. X XK.K. X X XH.J. X X X XJ.J.J.J.J. X X X X X",
"S.M.H.H.J.J. X=X X XJ.J. X X.X XZ.J. X X XH.S.N.S.S.S.O l L R E ( Z d % M s ;. X XK. X X X X=XJ.J. X X=X=X XJ.J. X X XK..X X X X",
"`.G.J.J.J. X X=X XK. X=X X=X=X XZ.S. X X X|.H.H.J.D.D.W U _ ( @.o.+.K G & . *X X X=X X X=XJ. X=X X X X X X X=XJ. X X X XK. X X X",
" XJ.K. X X X X X*X X X X.X.X.X X X.X.X.X.X.X X X.X.X X X4 O.O.O.o.o.%.&.+..  X X X X X X X X X X XK. X XJ. X X=X=X X X X XK. X X",
".X X X.X X X XJ.K. X X X X X X X.XXX X X X X.X.X.XXX.X.X4 &.$.5.6.6.#.%.&..  X XI. X*X X X X X X X X XJ. X X X X.X X=XK.=X X X X",
"oX.X X X X X X=X X X X X X X X X X X X X X X X X X X.X0.=.9.-.q.*X X#.,.9.F @X X X X X X XK. X X X X=XJ. X XK. X X X X X X X=X X",
"oX.X XK.=X X X X X X X X XJ. X X X X.X.X.XXX.X X.X.X.XXX.X.XXX X*X*XF.K.*XXXXXXXXXXX.X X X*XK. X X X.X=X.X.X.X X X X=X X X X X X",
" X.X.XXX.X.X.X.X X.X.X X X X X*X.X.X.X.X.X.X X X X X XXX X.X X X*X X>X:XT.m.^.^.n.n.>X-X=XJ.=XK. X.X;X.XoXJ. X.X.X.X X X X XXXoX",
"oX X.X.X*X X.X.X X X.X X X.X.XXX.X X.X.X X X.X.X X X.X.X.X.X X X'.*X>X:X{.~.R.U.R.Y.@X`.*XK.=XI.=X.X X X X X.XoXXX.X XXXXX X.X X",
"oX X X X.XJ.=XJ. X X X X X X X X=X XK. X X.X.X.X X X X X*X X X.X-X'._.T.^.^.~./.~.U.U.n._.C.Z.Z..X'.S.S.'.oX X X.X.X.X.X X X X.X",
"oX X X X.X=XJ.=X.X X X X X X X X X X X X X.X*X.X*X X X X X X.X.X>X&XE.E.@X@X~.~.~.U.d.t._.A.C.Z..XJ.N.S.J..X X X X.X.X.X X X X.X",
"oXJ. XJ.=X=X*XJ.*XK.J.=XJ. XP. X X=XJ. XJ.=XI.=XJ.I.J.=XP.K.J.*X .t. .p.R.R.4.3.U.4.p.y.].`.S.Z..X XJ. X X.X*X X X X X X X X X X",
"oXK.J.J.P.=XP.K.K. XI.J. XK. XK.I.=X=XI.=XJ. XP. X X XK.J. X X Xt.u.n.n.R.R.U.x.2.2.s.a._.A.A.Z. X XJ. X X X XJ. X XJ.J. X X X X",
".XJ.J.=X=XK.G.Z. XJ.J.=XJ. XJ.=X XJ.=XK.J.J.H.H.J.I. X*X=XJ.=X.X`.A.A.m.a.i.i.2.s.d.E.E.[.A.oX XZ.S.Z.H.H.S.H.H..XK.H.H.J. X XJ.",
"oXK.J.K.J.J.Z.M.P.=X XI.=XK. XP.J.J.P.=X=XP.G.D.=XJ. XK.I. XJ.=XZ.A.{._.a.y.a.p.y.u._.]._.V.XX.XZ.N.N.Z.F.H.H.H. XH.S.N.J. X X X",
".XP.*XJ. XP. XJ. XK.J.=XJ. XK. X X XJ.*XK.*XP. X XP.*XJ.J. X X XXXXXXX}.`._.(.].]._.A.`. X XH.N.N.N.S.S.H.H. X.X X X X X X X X X",
"oXK. X X XJ. X X X X X X=XP. XP..X X XJ. XK. X X XK. X X*XJ. X.X X.XoX X`.`.`.[.`.S.S.`. X|.G.F.F.H.'.J.J.S. X X X X.X X X X X X",
"oX X.X X.X X.X X=X X X X.X X.X X X X X.X.X X.X X.X X.X X.X X X X X X X X|.'. X X X XoX X X.XK.K.|. X X X X X XXX.X.X.X.X.X.X X.X",
"oX.X.X.X.X.X.X.X X X*X.X.X.X.X.X X.X X.X.X.X.X.X.X X.X.X X=X.X.X X XXXoX X X X X.X.X.X=X XK.K..X.X*XXX X X X.X.X.X.X.XXX.X.X.X.X",
"oX.X.X.XXX.X.XXX.XXX.X.X.X.XXX.X.X.XXX.X.X.X.X.X.X.XXX.XXX.X.X.X.X.X X X X X XK.K. XK.J.J.J.J..X.XXXoX.X.X XoX.X XoX XoXXX X XoX",
"oX.X.X.X.X X.X.X.X.X.X.X.X X X.X.XoX.X.X X.XXX.X.X.X.X.X X.X XXX.X*X.X X XK. XJ.J.J.P. XJ.J. X X.X XoX.XXXoX.XoXoX XoX.X.XXXoX X",
"oX.XXX X XoX X.X XoX.XXX.X.XXX.X X X XoXXX X XoXXX.XXX.X.X.X.X.XXX.X.X.X X*XK.J.P.=X*X*X*X*X.X XoXXX XoXoX;XoXXXoX XoXoX.XXXoXoX",
"$X#X$X$X$X$X$X$X$X#X$X$X$X$X$X#X$X$X#X$X$X$X$X$X$X$X$X$X$X$X$X#X>X:X#X$X-X>X-X-X}.-X}.&X>X>X&X#X>X$X$X#X$X$X$X$X$X#X$X$X$X$X$X#X"
};
