/* XPM */
static char *b74fd9c28a134780cadf2a697f739396OgX0Lr3GH2MCdcVZ[] = {
/* columns rows colors chars-per-pixel */
"64 64 230 2 ",
"   c #0F0F07",
".  c #0E1008",
"X  c #151207",
"o  c #101008",
"O  c #19170A",
"+  c #1D1A0A",
"@  c #1D1B12",
"#  c #3B0D06",
"$  c #271706",
"%  c #211D0B",
"&  c #391C04",
"*  c #211F13",
"=  c #26210B",
"-  c #2C250D",
";  c #2F280E",
":  c #332B0F",
">  c #3C290B",
",  c #2B2715",
"<  c #352D11",
"1  c #362F15",
"2  c #393011",
"3  c #38341A",
"4  c #322F23",
"5  c #373320",
"6  c #4E0B05",
"7  c #5A0805",
"8  c #421F01",
"9  c #4C1D02",
"0  c #521C03",
"q  c #680403",
"w  c #780001",
"e  c #7D0B02",
"r  c #641301",
"t  c #661803",
"y  c #761502",
"u  c #412001",
"i  c #4B2707",
"p  c #4D290A",
"a  c #55320C",
"s  c #58340C",
"d  c #4C3414",
"f  c #453D1C",
"g  c #563A17",
"h  c #672904",
"j  c #772A04",
"k  c #73330C",
"l  c #643C12",
"z  c #443E22",
"x  c #4B3E2F",
"c  c #4A401E",
"v  c #6D4512",
"b  c #754A18",
"n  c #7D501B",
"m  c #4B4524",
"M  c #534B25",
"N  c #534D2A",
"B  c #5C4A2A",
"V  c #5A532C",
"C  c #5C552D",
"Z  c #514A33",
"A  c #595533",
"S  c #644C28",
"D  c #6D532A",
"F  c #765429",
"G  c #655D32",
"H  c #685E35",
"J  c #6A6235",
"K  c #6D6639",
"L  c #77653A",
"P  c #706839",
"I  c #645B4A",
"U  c #755D44",
"Y  c #6A6448",
"T  c #756648",
"R  c #796C4D",
"E  c #7C7444",
"W  c #7B754A",
"Q  c #6C6855",
"!  c #796D57",
"~  c #7C7C72",
"^  c #852A02",
"/  c #8A3303",
"(  c #993302",
")  c #A13601",
"_  c #A23B01",
"`  c #AC3F01",
"'  c #835514",
"]  c #81521D",
"[  c #AE4001",
"{  c #B04000",
"}  c #9B6718",
"|  c #85711F",
" . c #B5791E",
".. c #895820",
"X. c #825A2D",
"o. c #866735",
"O. c #926B31",
"+. c #9A6B31",
"@. c #936D38",
"#. c #BC7E20",
"$. c #A3763B",
"%. c #A97A3E",
"&. c #826E4D",
"*. c #857746",
"=. c #847C49",
"-. c #97764E",
";. c #897D5B",
":. c #A37E43",
">. c #887F72",
",. c #BAA432",
"<. c #CC8924",
"1. c #DC9628",
"2. c #E09829",
"3. c #C3AC35",
"4. c #D4AE34",
"5. c #E8B837",
"6. c #8B834C",
"7. c #8B8451",
"8. c #8F8956",
"9. c #928B55",
"0. c #988E56",
"q. c #968E58",
"w. c #9D955E",
"e. c #9F985F",
"r. c #AB8346",
"t. c #B88B4A",
"y. c #BE914F",
"u. c #B38F54",
"i. c #A3985D",
"p. c #B7A252",
"a. c #998A66",
"s. c #928B74",
"d. c #A49C62",
"f. c #A4936A",
"g. c #A79668",
"h. c #AC976E",
"j. c #B59F72",
"k. c #AAA166",
"l. c #A9A268",
"z. c #ADA569",
"x. c #BBA265",
"c. c #B3AB6D",
"v. c #AFA179",
"b. c #BBAA78",
"n. c #B8B071",
"m. c #C2924F",
"M. c #C49551",
"N. c #CD9D56",
"B. c #CCA25C",
"V. c #D0A058",
"C. c #CDAC6A",
"Z. c #CAB36A",
"A. c #D9B166",
"S. c #D9B76C",
"D. c #C2AD7D",
"F. c #E2CB40",
"G. c #F4D644",
"H. c #F8E048",
"J. c #D6C477",
"K. c #E5C878",
"L. c #E6D07E",
"P. c #9D9286",
"I. c #A29B83",
"U. c #B2AB8E",
"Y. c #BDB696",
"T. c #BFBCA9",
"R. c #C5B181",
"E. c #CAB483",
"W. c #C7B488",
"Q. c #C6B88A",
"!. c #CCBA8D",
"~. c #D6BA86",
"^. c #D3BC8A",
"/. c #C3B993",
"(. c #C2BA96",
"). c #CBBD94",
"_. c #C2BDA4",
"`. c #D7C289",
"'. c #C9C299",
"]. c #DCC896",
"[. c #E7CE8E",
"{. c #EBD686",
"}. c #F1DD87",
"|. c #E3CB94",
" X c #E6CE96",
".X c #ECD295",
"XX c #EDD49A",
"oX c #E8D39C",
"OX c #F3D493",
"+X c #F1D69A",
"@X c #F4DB9D",
"#X c #FADC9D",
"$X c #F5E48D",
"%X c #F8E890",
"&X c #F5E09B",
"*X c #F7E19A",
"=X c #CAC7A9",
"-X c #DBCEA6",
";X c #D4CDAC",
":X c #DDD0A9",
">X c #CFCBB1",
",X c #D3CEB5",
"<X c #D6D2B6",
"1X c #E0CEA0",
"2X c #E5D2A3",
"3X c #E9D6A5",
"4X c #EEDAA3",
"5X c #E4D4A9",
"6X c #EEDCAC",
"7X c #F7DEA3",
"8X c #F8DEA4",
"9X c #F5DEAA",
"0X c #F8DCAA",
"qX c #E3D9B7",
"wX c #EDDDB3",
"eX c #F2DEB1",
"rX c #F5E1A3",
"tX c #F9E0A4",
"yX c #F8EBA2",
"uX c #F3E1AC",
"iX c #FAE2AA",
"pX c #EEE0B0",
"aX c #F3E2B2",
"sX c #F8EDB3",
"dX c #DAD7C7",
"fX c #E3DBC6",
"gX c #E7E7D6",
"hX c #EBE9D0",
"jX c #F4F4E4",
"kX c #F7F8E8",
/* pixels */
"0X8X8X8X7X8X7X9X8X8X7X7X8X9X8X8X@X7XtX#XrX7X7XtX#XtX#X7X7X#X7X7X7X#X#XrX7X7X7X#XtX7X8X7X7X#XtXtXuXyXrXrXtX*X7X#X#X*X*X&X7XrXrXrX",
"0X8X8X8X7X8X7X7X7X8X7X8X7X7X7X8X7X7X7X7X7X7X7X7X7X7XrX7XtX7XrX7XrX7X7X7X7X7X7XrX8X7X#X7X7X7X@X+X4X4X4XrX7X7X#X@X@X#X@X@X@X&X4X&X",
"9X7X8X8X8X8X7X8X7X7X7X8X7X8X7XrX7X7X7X#X7XrX7X7X#X7X7X7X@X7X7X7X7X7X#X7X7X7X7X7X8X7X7X8XtX7X+X.X+X@XrX7X7X@X+X XtX8XrXrXrXrXrXrX",
"0X8X7X7X9X7X7X7X8X7X9X8X9X7X8X8XtXtX7XtX7X#X7X7X7X&.u u |.7X7X#X7X7XrX7X7XrX#X7X7X7X7X7X7X@X+X.X+X+X@X@X7X@XXXXX8X7X7X7XrX&X@X*X",
"0X0X8X8X8X8X8X7X7X7X8X8X8X7X8X7XtX7X7X7X7X7X7X Xv.p.,.,.x.j.b.j.j.j.j.D.7X7X7X7XXX+X@X@XXX.X.XOX{..XOX@X8X0X9X9XaXaX9X9X8X8X7X7X",
"0X0X7X7X8X8X8X8X7X8X8X8X8X7X7X7X@X7X7X7X7X7X7X~.u F.H.H.| & u u 8 8 8 &.tX#X7X&XXX@X@X@XXX.X+X@XOXOX@X@X0X9XeXeXwXwXwX9X9X9XiXtX",
"0X7X7X7X7X8X7X9X8X7XuX7X8X7X9X8X+X@X#X7X7XtX7X^.u F.G.1.G.G.H.H.G.1.2.<.u u &.7X@X7XtXtX@X@X7XtX*X#X#X0X9XeXwXqX:X-X-X-X2X3X7X7X",
"0X7X0X7X7X7X7X7X7X7X7X7X7X7X8X8X+X+X7X7XtX7X@X^.u 4.5. .3.3.3.3.4.5.5.5.} } %.D. X7XtXtXtXtX7X#X#X8X8X0XeXqXqX<X<X;X:X:X5X5X9X9X",
"9X7X7X8X8X9X7X7X7X7X7X7X7X7X@X7XtX7X7X7XtXtXtX^.8 <.<.8 8 8 & 9 | H.H.G.2.2.<.8 E.8X8X#X7X#X7X7X0X@XiXaXb.Q.<X<X<X<XY.(.!.Q.2XoX",
"9X8X7X8X8X7X8X8X8X9X7X0X8X0X8X8X@X7X@XtX7X7X&.] 1.b 8 8 dXjXjXjXgXu i | G.5.<.8 D.8X7XtX7XrXrX7X#X@X9XaX'.'.;X>X>X<XY.'./.!.2X2X",
"0X8X9X8X7X7X7X7X8X7X7X7X8X8X8X7X#X7X7X@X7X7Xb.u.#.l I U.gXkXkXkXgXU.a.6.4.4.<.} x.E.7X7X7X7X7X7X8X7X7XaX].-X'.Y.Y.=XU.Y./.!.2X2X",
"9X8X7X7X7X8X8X8X8X7X4X7X7X9X7X7X7X7X7X8X#X7X@X^.8 & >.kXkXkXkXkXkXkX'.k.& <.2.2.} T tX#X#XtX7X7X8XtX4XuX5X5X'.Y.Y.'.Y.Q.!.^.2X3X",
"0X8X8X8X7X7X7X9X8X8X7X0X8X8X0X7X7X7X8X8X8X@X7X7X4X&.l -.I I -.U ! Y.n.c.z.o.' 2.} U 7X7X7X7XrX7X#XyX@XiXuXpX-X-X5XqX3X3X2X2X0XuX",
"0X8X8X8X8X7X8X7X7X7X7X7X7X4X+X@X@X7XtX8X8X@X7X XE.g.u.:.g g :.+.@.0.0.0.q.7.*. .n U 7X7X7XD.R.R.D.D.D.rX4X7X4X3XoX2X2X2X XoXXX7X",
"0X7X8X7X8X7X8X8XXX+X7X7X+X.X.XXX.X+X@X7X7X@X8X~.& {.{.V.F D V.V.y.> u u > w.d.u & U 7X7X@X. . . . . @ *X{.XX X.X8X7X0X8X7X0X0XiX",
"0X8X8X9X7X7X0X8X.X7X8X7X+X X XXX XXX7X7X0X@Xf.I.fX~.A.V.M.N.}.}.L.y.F D y.o.S u & 1 R R T : 7.d.g.=XgXW D.XX.X X9X7X8X#X#X#X#X#X",
"9X8X7X7X7X7X7X0X7X7X7X9XrX8X7X7X2X4X4XoX.X+Xh.v.,Xj.t.M.N.A.%X}.K.V.o.F N.o.u 7 # o % % % 2 6.k.k.=XhXo U.#X7X7X7X7X7X0X0XtX8X#X",
"9X8X7X7X7X0X7X7X8X7X8X7X8X8X8X8X4X4X4X+X+X+X+X!.8 9 a ..m.A.%XS.V.V.$.+.V.O.0 w 6 O 2 2 2 2 C P P e.c.o b.8X7X7X0X7X7X0X7X7X8X7X",
"9X0X7X8X7X7X7X7X8X8X7X7X8X8X7X9X@X7X7XrX@X@X7X+X|.T D M.N.V.A.V.N.+.v g S k ^ ) _ / O ; 2 2 V P P e.n.o R.8X8X8XtX7X@X@X7X7X8X8X",
"0X0X7X8X7X7X7X7X9X7X8X7X7X7X7X7X@X&X7X@X7X7XrXrX8XR U ~.C.N.m.N.M...a & # y ^ { [ ` i i : 1 N H G 8.d.R Q.7X8X9X7X7X@X@X+X8X8X8X",
"0X0X9X8X7X7X7X0X7X9X8X8X7X7X8X@X*X&X&X&X&XrX9XuX0XR s.jX'.x.n m.M.] a # w ) ` { [ { { j o o : 2 2 = * 9XtX8X7X7X7X7X7X7X0X8X8X8X",
"0X7X7X8X7X7X0X7X8X8X8X7X8X8X8X7X*X&X&X@X7X7X6X3X6X! x ~ Y L M.$.+.a $ 0 _ ^ h h h j { _ / O N H G z @ 7X8X8X8X7X7X7X7X7X7X8X8X7X",
"0X@XXX+X@X7X7X7X7XrX8X8X7X7X7X7X*X&X&XrX7X9X3X5X-XQ f E D L M.+.n & 0 h _ k s F D F _ _ ( 0 V G P N 3 |.oX8X8X7X7X7X7X7X8X8X8X8X",
"9XXX.XXX+X0X7X7X8X7X7X8X9X7X7X7X+X&X&XuXwXqX:X;X;X! *.%XA.m.' s & o ( _ 8 b +.V.N.M.u t e ` j O P P P o R.8X8X8X9X7X7X7X8X9X8X8X",
"0X8X8X8X7X9X8X7X8X7X7X9X7X7X7X7X&XrXuXaX].;XqXfXfXQ D x.r.$.l i & o y ^ u x.`.qXoXK.r.X.t { j O P 7.d.  D.7X7X7X7X7X0X7X7X7X8X8X",
"0X8X8X8X8X7X8X7X8X7X7X7X7X7X7X7XrX4X4XpX-XqXdXfXdXP.U ] n b > B B O 7 r a J.&XjXsX}.V.@.i { / 0 H q.k.A v.].0X8X0X4X7X+X7X7X8X7X",
"0X8X8X8X7X7X8X9X8X7X7X7X7X7X7X7X7XsXsXqX/.Y.Y.T.dXdXT.8 u u 8 d.h.u % d ] K.%X%X%X}.V.@.0 { { ` o V P n.=.@ 7X8X7X7X7X7X9X7X8X8X",
"0X9X7X7X8X7X8X7X7X7X7X7X8X8X8X0X4XuXuXpX).(.Y.(._.dX_.8 t 7 u =X>Xu & p ..B.L.%X%X}.%.F i { { ` o N P n.W * 8X8X7X7X0X7X7X7X7X8X",
"0X8X8X8X7X8X7X8X7X9X0X7X8X8X7X7X7X7X X2X].2X'.(.Y._.U.> y y 8 dXgXg p a ..t.A.$X$XL.] b 0 ` ` [ o N K c.W + XX+XXX+X7X+X.XoX+X8X",
"9X7X8X8X7X7X7X7X7X7X7X7X7X7X7X7X0X8X XXX2X2X!.Q.W./.b.8 _ ( 8 fXgXn.K a ....O.V.:.' ..k u w ( [ o - 2 : = * XXXXXX7X8X7XXX.X@X0X",
"9X7X7X8X7X9X8X8X8X4XXX+XXX+X7X7X@XtX#X8X8X8Xh.U.5Xv.a.b k j r P.U.n.L a ' %.t.V.m.r.] l 9 w ( [ / h = C z * 8X8X7X0X0X7X4X7X8XiX",
"0X0X7X8X8X7X8X7X8X7XXX.X XXX7X7X#X8X#X#X8XiXY 7.|.T a ] s 0 w 0 H n.L s ..t.V.V.B.N...l 9 w ( [ [ j X P m @ 8X7X7X7X7X7X8X8X8X8X",
"8XtXtX7X7X7X7X7X7X7X7X7X7X7XrX#X7X7X7XtXW.o o o   > F V.+.n u u & u b ] ..] +.B.%.] u r w w ( ` ` j X P m * tXtX7X#X#XrX7X7XtX@X",
"8X@X7X7XrX#XtX7XtX7X7X7X#X7X7X7X7X7X7Xb.f.6.A f - $ g @...n u u p v $.m.S.Z.Z.V.%.] u r w w ) ` ^ 0 . N a.D.@X7X7XrX7X7X7X7X7XtX",
"0X7X7X#X7X#X7X7X#X7X&X7XrX7X7X7XtX7XrXR Y n.=.G 2 + o o n n u u a ] m.A.%X%X}.V.%.] 8 r w w ) `     . . D.7X7X7X7X7X#X7X#X7X#XrX",
"8X7X7XrX7X7X7X7XtX7X7X7X7X7X7X7X7XE.o k.e.2 1 : o   $ u u f P P *.V.{.}.V.V.A.%Xi.9 w w w w 6     R.8X8X7X#X7X7X7X7XrX7XrX7X7X7X",
"8X7X7X7X7X7X7X7X@X@XtX7X@XtX7XrXW.f.m 7.E 2 ; = $ 0.i.@.@.o.C J P r.S.K.V.V.V.Z.-.r w q 7 7 #   o R.7X7X7X@X@X8X7X7X7X7X7X7X7X#X",
"8X8X7X7XrX#X7X*XtX7X@XtXrX7X7X#XR m P f 2 2 + $ u {.{.N.V.m.2 J J : t.V.V.V.m.8 r w w 6 o o o . o R.7X7X7XXX@X#XrX#XtX7X7X7X7XrX",
"8X7X7X7X7X7XrX#X7X7XtX7XrX7XR.+ H V 2 2 2 2 + $ > n t.$XS.V.B.F 2 2 : g ] l >   .   X ; c c.8.K K m , 7X+X+X.X+X#X7XrX7X7X7X7X7X",
"8X#X7X7X7X7X7X7X7XrX#X7XrXE.f.m C M 2 2 1 ; X.F 8 n r.L.B.V.V.r.o.2 : d b d p m K W W W E w.=.P P m * 8X.X X X.X7X7X#X7X7XrX#X7X",
"XX.X.X.XXX+X@X8XtX@X@X+X7Xx m P f 2 2 2 -   y.t.u ] +.N.N.V.V.V.m.2 % + > > f P e.n.n.n.c.2 V P P m @ 7X7X@X+X+X+X+X7X7X7X7X7X#X",
" X.X.X.X+X@X#X0X7X@X+XR.Z A C 3 2 2 2 % $ > a l ] s v O.m.V.V.F d O C C X 8.z.c.c.n.n.q.E z.8.P P m * 7XtXtX@X+X@X@X7X*X7X7X@X7X",
"XX+X.X+X@X7X7X8X7X7XR.h.R C M 2 2 1 - a.g.f.f.-.b p p b $.r.r.F f = M N m w.n.n.n.c.i.6.P e.6.P C ;.g.8X7X7X@X@X@X7X7X7X7X7X7X7X",
"4X+X@X@X@X7X7X8XrX7X. W n.m 2 2 2 - o |.8X7X+XE.u u u u u u 8 G J 2 % 3 P i.n.n.n.z.P P P P K K X D.7XtX7X7X7X7XtX7X7X7X7X7X7X7X",
"7X#X@X7X7X7X7X#X#XrXo 5 N G B 2 + a.].7X7X7X7X^.2 C E k.P G J m f 2 % A k.c.n.n.n.z.P P P P N f o R.8X7X7X7X7XtXtX8XrX#X7X#X7X7X",
"8X8X7X#X7X7X@X7X7X7X;.Y o C m - ! b.7X0X8X7X8X^.2 E 0.n.6.J G c 2 : + A c.'.'.n.z.e.J J J C m < ;.^.7X7X@X7XtX@X8X7X7X7X7XtX7XtX",
"0X8X8X8X8X7X7X7X7X7XtXD.o o      X7X8X7X7X7X0X^.2 k.n.n.=.J 2 2 : o   A n.hXhXn.9.P P M 2 1 = 5 7X7X7X@X7X7X#X7X7X7XtX7XtX#X7X7X",
"0X7XtX7X7X8X7X7XtX@XtXXX X].].].7X8X8X8X8X8X8X!.+ d.n.n.=.K J c 2 : + A n.Q.'.c.c.z.z.6.J J c 3 7X8X8X7X8X7X8X7X7X7X7X7X7X7X7X7X",
"0X7X7X8X8X8X8X8X8X8X8X8X8X8X8X7X7X8X8X8X8X8X7X^.. w.z.n.9.E P M m 2 O Z k.c.n.n.z.l.l.0.=.P N z |.XXiX8X7X@X7X8X9X7X7X7X7X9X9X8X",
"0X7X8X8X7X7X7X7X8X8X8XrX8X8X7X7X7X7X8X8X8X8X7X!.o H =.n.n.z.P P G 2 + 5 P d.n.n.9.P P i.c.P K K o R.7X8X0X7X8X9X8X8X0X8X7X7X8X8X",
"0X7X7X7X@X7X7X@X7X7X7X@X7X7X8X7X7XtX7X7X7X7X7X@X].R z A W E P M f + O @ 3 Z A 7.e.d.P E =.K M 3 o D..X.X7X0X7X7X0X7X8X8X7X7X0X7X",
"8X@X7X7XtX7X7XtX7X7X7X7X7X7X7X7X7X7X7XrX7X7XtX8X@Xa.R R K C J f ; o O 5 Q Q Y G 9.e.G G G G m + + v.^.oX+X8X7X7X7X7X8X8X7X7X7X7X",
"0X@X@X7XtXtXtX&XrX#X&X#X&X@XrX#X#XrX#X#X@XtXtX@X7X#X7X7XR o     o o . I ;X;XU.o . o o o o o - 2 2 = @ 7X8X8X7X7X7X7X7X7X@X7X7X7X",
"8X7X&X@XtX*X@X#X@X7X7XtX7X7X#XrXrX#XrX7X*XrX@X*X@X7X*X@XR O - : ; ; O Y ;X;XT.I.s.s.. - - : : 2 2 : : f.^.7X7X@X7X7X7X@X7X7X7X7X",
"0X#X@XtXtX&X+X.XtX@XrX@X&X#X@XtX@X&X8X&XtX@X@X+XtX7X@X|.T 1 2 2 2 : O Y /././.Y./.Y.Y Z : c f 2 2 2 : o b.+X+XXX7X@X+X+X@X7X7X@X",
"0X7X@X#X@X@XXX[.7X*X#X7X7X7X7X&X#X@XtXrXtX#X+X+X@X&X|.o J G 2 2 : o X Y ).Q.)./.Q./.5Xs.% P M 2 2 % o o b.+X+X+X#X@X.X.X@X7X7X7X",
"0X&XrX@X7X*X7X@X7X#XrX@XtX@XtX&X7X@XrX&X8X7X7X7X@Xb.f.q.E K C f 1 ; ; A a.).5X2X5X].a.R G e.=.C C c : - R a.7X8X8X7X7X7X7X7X7X7X",
"0X#X7X7XtX@X7X7X7XtX7X#X7X#X7X7X7X7X7X@XrX#X@X+XXXR A c.=.K K c 2 2 2 : o W.3X3XoX).O A P c.7.J J M 2 2 % @ 7X8X7X8X8X7X7X7X8X@X",
"8X7X8X7X8X7X9X7X7X7X7X7X7X7X7X7X7X8X7X7X8X7XR % 2 J P P K G 2 2 2 : 2 : X E.9X8Xf.O 2 C P P N 2 2 2 2 2 - * 7X8X7X8X0X7X8X8X8X8X",
"0X8X8X8X8X7X7X7X7XrX8X8X8X7XtX7X7X7X8X8X8X8XR X = z m m m f = = = = = = o E.8X8Xf.X = f m m 3 = = = = = + @ 8X8X8X8X7X8X9X8X8X8X",
"0X8X8X8X8X9X8X8X8X8X9X8X8X8X8X9X8X8X8X8X9X7XR   . .   o . .     o . . o   ^.7X7Xf.o o o . . . .   . o o o * 0X8X0X7X0X9X8X8X8X8X",
"0X8X8X8X8X8X8X7X8X8X8X8X8X8X8X8X8X7X7X9X8X8X8X8X8X8X8X8X9X8X8X8X8X8X8X7X8X7X#X#X#X@X@XtX@X@X7X7XrX8X9X8X8X9X8X0X7X7X0X8X8X9X7X0X",
"0X8X0X7X9X8X0X0X0X7X9X8X9X8X8X9X8X0X0X9X8X9X0X0X8X0X9X8X8X8X8X8XuX8X8X7X8XrX@XrXrX@XrXrXrXrXrX8X9X0X0X8X9X0X0X0X7X9X0X0X8X0X9X0X",
"wXeXeXwX9XwX9XeXeXwXeX9XeXwX9XeXeXeX6X9XeXeXeXeXeXeXeXeXeXeXwXeXaX6XwX6XaXuX9XuX9XpX6X9XaXaXpXwXeXeXeXeXeXeXeXeXeXeXeXeXeXeXeXwX"
};
