/* XPM */
static char *_23335c493dd4331d1f1b024d5dd2aebtAvR6HI1qwfhuMEv[] = {
/* columns rows colors chars-per-pixel */
"64 64 229 2 ",
"   c #0F0F07",
".  c #0E1008",
"X  c #151207",
"o  c #101008",
"O  c #19170A",
"+  c #1D1A0A",
"@  c #1D1B11",
"#  c #3B0D06",
"$  c #271706",
"%  c #211D0B",
"&  c #391C04",
"*  c #211F14",
"=  c #26210B",
"-  c #2C250D",
";  c #2F280E",
":  c #332B0F",
">  c #3C290B",
",  c #2B2715",
"<  c #352D11",
"1  c #362F15",
"2  c #393011",
"3  c #38341A",
"4  c #373321",
"5  c #3F3D34",
"6  c #4E0B05",
"7  c #5A0805",
"8  c #421F01",
"9  c #4C1D02",
"0  c #521C03",
"q  c #680403",
"w  c #780001",
"e  c #7D0B02",
"r  c #641301",
"t  c #661803",
"y  c #761502",
"u  c #412001",
"i  c #4B2707",
"p  c #4D290A",
"a  c #55320C",
"s  c #58340C",
"d  c #4C3414",
"f  c #453D1C",
"g  c #563A17",
"h  c #672904",
"j  c #772A04",
"k  c #73330C",
"l  c #643C12",
"z  c #443E22",
"x  c #513F2D",
"c  c #4A401E",
"v  c #6D4512",
"b  c #754A18",
"n  c #7D501B",
"m  c #4B4524",
"M  c #534B25",
"N  c #534D2A",
"B  c #5C4A2A",
"V  c #5A532C",
"C  c #5C552D",
"Z  c #4D4737",
"A  c #554D31",
"S  c #595533",
"D  c #644C28",
"F  c #6D532A",
"G  c #765429",
"H  c #655D32",
"J  c #675E36",
"K  c #6A6235",
"L  c #6E6639",
"P  c #77653A",
"I  c #706839",
"U  c #655A48",
"Y  c #755E43",
"T  c #696447",
"R  c #746549",
"E  c #76694B",
"W  c #7A6C4D",
"Q  c #7C7444",
"!  c #7B744A",
"~  c #7D774A",
"^  c #6C6957",
"/  c #7E7254",
"(  c #7C7C72",
")  c #852A02",
"_  c #8A3303",
"`  c #993302",
"'  c #A13601",
"]  c #A23B01",
"[  c #AC3F01",
"{  c #82531A",
"}  c #AE4001",
"|  c #B04000",
" . c #9B6718",
".. c #85711F",
"X. c #B5791E",
"o. c #895820",
"O. c #825A2D",
"+. c #866735",
"@. c #926B31",
"#. c #9A6B31",
"$. c #936D38",
"%. c #A3763B",
"&. c #A97A3E",
"*. c #826F4C",
"=. c #857746",
"-. c #847C49",
";. c #97744C",
":. c #887A5A",
">. c #A37E43",
",. c #887F72",
"<. c #BAA432",
"1. c #CC8924",
"2. c #DC9628",
"3. c #E09829",
"4. c #C3AC35",
"5. c #D4AE34",
"6. c #E8B837",
"7. c #8B834C",
"8. c #8B8451",
"9. c #8F8956",
"0. c #948957",
"q. c #968E58",
"w. c #9D955E",
"e. c #9F985F",
"r. c #AB8346",
"t. c #B88B4A",
"y. c #BE914F",
"u. c #B38F54",
"i. c #A3985D",
"p. c #B7A252",
"a. c #938868",
"s. c #A49C62",
"d. c #A5946B",
"f. c #A89669",
"g. c #AD9870",
"h. c #B59F72",
"j. c #AAA167",
"k. c #ADA569",
"l. c #BBA265",
"z. c #B3AB6D",
"x. c #B7A875",
"c. c #BEAC7D",
"v. c #B8B071",
"b. c #C2924F",
"n. c #C49551",
"m. c #CD9D56",
"M. c #CCA25C",
"N. c #D0A058",
"B. c #CEAC6B",
"V. c #CAB36A",
"C. c #D9B166",
"Z. c #D9B76C",
"A. c #C2AE7E",
"S. c #E2CB40",
"D. c #F4D644",
"F. c #F8E048",
"G. c #D6C477",
"H. c #E5C878",
"J. c #E6D07E",
"K. c #9F9583",
"L. c #B2AC90",
"P. c #BCB797",
"I. c #C3AF81",
"U. c #C5B181",
"Y. c #CBB684",
"T. c #C5B68D",
"R. c #C7BA89",
"E. c #CBBA8D",
"W. c #D7BA86",
"Q. c #D2BC89",
"!. c #C4B993",
"~. c #CBBC92",
"^. c #C4BC98",
"/. c #D0BF96",
"(. c #C3BFA4",
"). c #DAC48A",
"_. c #C9C299",
"`. c #D8C89B",
"'. c #E7CE8E",
"]. c #EBD686",
"[. c #F1DD87",
"{. c #E2CA93",
"}. c #E7CE96",
"|. c #EBD295",
" X c #E6D29E",
".X c #EDD49A",
"XX c #ECD79C",
"oX c #F3D594",
"OX c #F0D79B",
"+X c #F4DB9D",
"@X c #FADD9D",
"#X c #F5E48D",
"$X c #F8E890",
"%X c #F7E09E",
"&X c #CAC7A9",
"*X c #DBCEA5",
"=X c #D4CDAB",
"-X c #DCD0A8",
";X c #CFCCB2",
":X c #D5D1B4",
">X c #D9D5B7",
",X c #E2CFA1",
"<X c #E4D2A4",
"1X c #E9D5A4",
"2X c #EDDBA5",
"3X c #E4D4A9",
"4X c #E6D8AA",
"5X c #EEDCAB",
"6X c #F7DEA3",
"7X c #F8DEA4",
"8X c #F5DEAA",
"9X c #F8DCAA",
"0X c #E3D9B5",
"qX c #EEDEB3",
"wX c #F2DEB1",
"eX c #EFE1AF",
"rX c #F6E1A3",
"tX c #F9E1A4",
"yX c #F8EBA2",
"uX c #F3E1AC",
"iX c #FAE2A9",
"pX c #F3E1B1",
"aX c #F8EDB3",
"sX c #D9D8C9",
"dX c #E5DDC8",
"fX c #E7E7D6",
"gX c #EBE9D0",
"hX c #F4F4E4",
"jX c #F7F8E8",
/* pixels */
"9X7X7X7X7X6X6XrX7X6XrX7X7X6X6X7X@X6X6X6X6X%X6X6XtX6X6X6X6X6X@X6X6XrX6X@X6X6X6X+X6X6X7X7X@X6XtXtXuXrXrXrX7X6X@X@X%X%X%X%X%X%XrXrX",
"9X7X7X7X7X7X7X6X6X7X8X6X7X7X6X6X6X6X6X6X6X6X6X6X@X6XtX@X6X6X6X6X6X@X6X6XtX6X6XtX6X6X6X6X6X6X+XOX+X2X2XrX7X7X+X+X@X@X+X+X+X+X%X%X",
"8X6X7X6X6X8X6X6X8X6X6X6X6X6X6X8X6X6XtX@X6X@XtX6X6XrX6X6X6X6X6X6X6X6X6X6XrX6X6X6X7X6X7X7XtX6XOX|.+X+X%XrX6XOXOX}.tX6XrXrXrXrXrXrX",
"9X6X6X7X6X6X7X6X7X7X7X6X6X7X7X7X6XtX6X7X6X6X6X6X6X@X6X6X@X6X6X+X6X6X%X{.u u *.@X6X6X6X7X6X+XOX|.XXXX+X+X6X6X.X}.6X9X6X+X%X%X%XXX",
"9X9X7X7X7X7X7X7X6X6X7XrX7X7X6X8X6X6X7X6X6X6X6X6X6X6X6X6XA.x.x.h.h.h.x.l.<.<.p.l.).+X+XOX.X|.|.oX].|.oX6X9X9X9X8XuXwX8X9XrX7X6XrX",
"9X9X6X6X6X7X7X8X8X6X7X6X6XrX7X7X+X6X6X6X6X6X6X6X6X@X6XtX*.8 9 u & 8 8 ..F.F.S.> Y.OX@X+XOX|.OX+XoXoXoX+X9X8XwXwXwXqXqXwX5X8XiXtX",
"9X6X6X6X7X6X7X6X7X7X7X6X6X6X7X6XOX+X+X@X7X7X6X@X6X*.u u 1.3.3.D.D.F.D.D.2.D.S.8 Q.6XtX7X+X+X6XtX@X@X7X7X5XqX0X0X-X-X*X*X<X1X2X6X",
"9X6X9X6X6X6X6X6X6X7X7X7X8X6X7X6XOX+X6X7X7X7X6X{.A.&. . .5.6.6.5.4.4.4.<.X.6.5.8 Q.7XtXtXtXtX6X@X@X@X7X9XwXqX0X0X:X=X-X-X3X4X8X9X",
"8X7X6X7X6X7X7X7X6X6X7X7X6X6X6X6X6X+XrX6XtX6X+XA.u 1.2.2.D.F.F.P i u u u 8 1.1.9 Q.6X6X6X6X@X6X6X7X+XiXuXL.!.=X>X:X:XP.!.E.R.<X X",
"8X6X6X6X6X6X6X7X6X6X7X7X7X7X7X6X6X6X6X6X6X6X6XA.u 1.6.F...u i fXhXhXjXsX8 > v 2.{ =.6X6X6XrX6X6X@X6XuXpXQ._.=X;X;X:XP.~.~.T.<X<X",
"9X7X7X6X6XrX6X8X7X6X6X+X6X7X9X6X6X+X6X6X6X6XQ.l. .2.2.4.7.q.L.fXjXjXjXfXL.U l X.u.x.@X6X6X6XtX+X7X7X2XuX`.*X_.P.(.&XL.P.T.E.<X1X",
"8X7X7X7X7X8X6X6X8X6X6X2X6X7X6X6X6X6X6X7X@X6XY  .2.2.1.u k._.jXjXjXjXjXjXhX,.9 8 Q.6X6X6X@X6X6XtX6X7X+XuX4X3X_.!.P.^.P.R.E.E.<X1X",
"9X7X7X7X8X7X7X7X8X7X7X7X8X7X7X7X7X7XtX7X6X+XY  .2.n P k.v.v.R./ Y ;.U U ;.B *.OX6X7X@X6X6X6X6X6X@XtX+XrX5XeX*X-X3X4X3X1X1X<X9XiX",
"9X8X7X7X6X7X6X6X6X6X7X7X6XI.A.L.I.U.U.7X6X+XY { 1.=.-.q.q.0.q.$.$.>.g g %.u.s.Y.|.6X6X6X6X6X6X@X+XtX+XrX6X7X1X1X<X<X1X X}. XOX2X",
"8X7X7X7X6X6X7X7X.X+X7X6X.XO X   . o   6X6X+XY u > j.w.u 8 8 8 y.N.N.G G m.].'.8 Q.6X+X6X6X6X6X@X%X%X+X%X|.|.}.}.9X9X9X7X7X7X7XiX",
"8X6X6X7X6X7X7X7X.XOX7XY.R fX=Xs.j.-.: E W W 1 $ 8 B $.b.D G y.].[.[.M.n.N.C.W.dXK.d.6X6X6X6X6X7X@X%XoX%X|.|.|.'.6X6X7X7X@X@X@X7X",
"9X9X6X6X6X6X6X8X7X6X6XA.  dX&Xj.s.7.2 = % + X & 0 9 +.N.G @.N.H.[.$XC.m.y.t.h.:Xg.g.6X+X7X9X7X7X@X@X%X6X7X6X6X6X6X8X7X8XiX7X7X6X",
"9X7X6X6X6X6X7X7X7X8X7XL.  v.e.I I C 2 2 2 2 O 6 w 0 +.m.#.#.N.N.C.%XC.b.o.s 8 u E.@X6X9X7X9X9X9X6X6X7X7X6X6X6X7X7X6X6X7X6X7X7X7X",
"9X6X6X7X6X6X6X6X7X6X7XI.  v.e.I I C 2 2 < % _ ] [ e k D g b #.n.N.C.N.m.b.F R {.}.OX6X6X7X7X6X6X7X6X7X7X7X6X7X7XrX6X6X.X2X6X7X7X",
"9X9X7X7X6X6X6X7X6X7X7XR.W s.9.H K M : : p 0 ] | [ ) y # 8 s o.n.N.b.m.B.W.P *.rX.X2X+X+X7X@X+X+X6X7X7X7X7XrX6X7X7X7X.X6X+X6X7X7X",
"9X9X7X7X2X6X6X6X7X6X6X6XrX* = 2 2 - o X j | | | [ [ ' w # d { n.b.o.l.~.jX,.W uX6X6X6XrXrX%X+X@X6X7X6X7X6X6X6X8X6X6X6X+X6X7X7X9X",
"9X6X6X6X6X9X6X9X6X7X6X7X7X@ f H H N o _ ` } j h h h ) ] 0 & s @.%.b.P T ( x ^ 2X2X5XrX2X%X+X%X%X6X6X6X6X7XrX6X6X6X6X6X9X7X7X6X6X",
"9X2XOXOX+X6X6X6X7X7X8X.X{.4 V L J D 0 ] ] ] G G G g k ] h 0 & b @.n.P F Q z E 3X1X1X5X2X6X%X#X+X6X7X7X7X7X7X7X6X6X6X6X6X7X7X7X6X",
"9XOX.X.XOX9X6X6X7X7X7XU.o I I L O j | e r u b.N.M.#.n u ` ` X & s o.n.C.$X=.R `.-X4X5XuXrXrX@X%X+XrX7X7X6X8X6X7X9X6X6X6X9X7X7X7X",
"9X7X9X6XrX8X7X7X6X6X7XL.. i.9.L O j | t O.>.H.2XdX).l.9 ) y X & i l %.r.l.F U T.T.E.<X1XXXrX+XyX+X9X7X7X7X7X6X6X6X6X6X6X6X7X7X7X",
"9X7X6X6X6X6X7X7X7X6X{.x.A k.q.K i j | i $.N.[.aXhX$XG.a t 7 + B B 8 b n { P *.T.T.E.1X1X6XiX+XrX7X7X7X7X6X6X9X7X6X6X2X2X6X7X6X9X",
"9X6X6X7X6X7X7X7X7X7X+ -.v.I V o | | | 0 #.N.[.$X$X$XG.{ p O > f.i.8 8 u 8 /.3X0X<X3XpXpXuX6X X'.|.}.|.|.|.2X6X7X6X6X6X6X7X7X6X7X",
"9X6X7X7X6X6X7X8X7X7X* ~ v.I N . | | | i G &.[.$X$XH.B.{ p & 8 ;X&X8 7 t 8 /.,X<X5X1X5X2X8X6XXX|.|.}.}..X.XOX7X7X6X6X6X6X6X+X9X7X",
"8X7X7X6X6X6X6X6X9X6X@ ! z.K N . } [ ] i l { J.[.#XM.t.o.s i g fXsX& y y 8 ,XpXiX6X1X X|..X.X.X|.OXOXOX.X.X.XOXOX.XOX6X+X|..XOX7X",
"9X7X6X7X6X7X7X6X6X6X* = 2 2 , . [ ` w 9 l o.o.&.N.#.o.o.a P v.fXsX> } ` 8 `.iXuXuXuXXXXX|.'.|.|.OXOXOXOX.X.X.X.X.X6X7X+X.X.X6X7X",
"8X6X6X7X6X7X7X6X6X2X* f C = h _ | ` w 9 v o.t.b.N.b.&.o.a P v.L.K.r j _ b 0.x.+Xc.x.].%X6X+XiXtX6X6X9X6X7X7X7X7X6X9X6X9X2X6X9X7X",
"9X9X6X7X6X8X7X6X7X6XO m I X j } | ` w 9 l { n.N.N.N.t.{ a I v.H 0 w 0 s { a *.%X9.! +XtXtX+X7X+X6X7X6X6X7X7X7X6X6X6X6X6X6X7X7X7X",
"7X6X+X6X6X6X6X6X6X6X* m I X j | [ ` w w r u { &.N.#.{ { { b u i u u n #.N.G 8 o       Y.6X6X6XtX6X@X6X6X6X7X7X6X6X6X+XtX6X@X6X6X",
"7X6XtX6X%X6X6X@X6X7XI.q.N O 0 j [ ` w w r u { &.N.V.Z.V.y.%.v i u u { O.$.c $ - m S -.d.c.6X6X+X6X6X6X6X6X6X@X6X6X6XtX6X6X6X6XrX",
"7X7XtX6X6X6X6XrX6X6X6Xc.. .     [ ' w w r 9 { &.N.[.$X$XC.b.{ s 8 u n n . . % 2 H -.v.I W 6XrX6X6X6X6X%X6X6X@X6X@X6X6X6XrX6X6X@X",
"7X6X@X6X6X6X6X6X6X6X6X6X6X6XU.. o 6 w w w w u i.$XC.N.N.[.].N.7.L I d u u $ o o < 2 < w.j.. Y.6X6X6X6X6X6X6X6X6X6XtX@X6X@X6X6X6X",
"7X6X6X6X6XrX6X6X+X6X6X@X6X6XU.  X # 7 7 q w r ;.V.M.N.N.H.Z.r.I L C +.@.$.i.0.$ = ; 2 ! -.m d.Y.@X6X6X6X6X6X6X6X+X6X+XtX6X6X6X6X",
"9X6X6X6X6X@X6X@XtX6X6X6X7X7XU.  o o o o 6 w w r u y.N.N.M.t.: H H 2 b.N.N.[.J.u $ + 2 2 c L m E +X6X6X6X+X+X+X6XtX6XtX6X6X6X6X%X",
"7X6X6X@X6X6X6X6X6X6XtX6X6X, m L L 0.z.z - X X X o u l o.d 2 2 2 G N.N.C.$Xr.{ u $ + 2 2 2 2 C H @ U.6X+XOX|.OXOX6X6XtX6X6XtX6X6X",
"7X6X6X6XtX+XtXtX+X6XtX+X7X* m I I -.q.=.! ! ! T m 2 a b d ; 2 +.>.N.N.B.].r.n u G +.- < 2 2 M V m d.Y.+X|.|.'.|.@X6X+X6X6X@X6X6X",
".X|.|.|.|.OX6X6XtX+X+XOX+X@ m I I C 2 z.v.v.v.e.I c > > + $ 2 y.N.N.N.N.N.%.n u t.y.. - 2 2 2 f L m 5 6XtX+XOX.XOXOX6X6XtX6X6X@X",
".X|.|..XOX+X6X6X7X+X+XOX6X@ m I I 8.k.=.q.v.v.v.z.k.9.X C V + d G N.N.m.o.l s { v d > $ % 2 2 2 3 V H Z Y.6X+XOX+X+X+X6X6X6X6X+X",
".X.X.XOX+X@X6X7X6X@X+X+X7Xd.:.C I -.i.I 7.s.z.v.v.v.w.c V m = c G >.r.%.b a i b 0.f.f.f.a.; > 2 2 M C ! g.U.6X+X6X6X6X6X7X6X6X6X",
"OXOXOX+X6X6X7X7X6X6X6X6X7XtXY.o L I I I L I k.v.v.v.s.I 1 % 2 K H 8 8 > u u u u W.6X6X6X{.o - 2 2 2 m v.~ X 6X6X6X6X6X%X6X6X6X6X",
"9X@X+X@X6X6X6X@X6X+XtX6XtX6XI.. c V I I L L k.v.v.v.z.k.N + 2 f M H H P k.Q C 2 W.9X6X6X+X).0.% 2 M K N 4 o tX6X7XtX6X@X6XtX6X6X",
"6X7X6X7X6X6X6X+X6XtX6X6X6XtXE.:.1 c H C K L e.k.v._._.v.S + ; 2 f H L -.v.q.Q 2 Q.7X6X6X7XtXL./ : M V . T :.7X7XtX6X6XtX@X6X7X6X",
"7X7X7X7X6X6X6X6X6X6X6X6X6X6X6X6X4 = 2 2 M I I 9.v.gXgXv.S . X : 2 2 H -.v.v.j.2 Q.6X6X6X6X6X6X{.o . . . U.7X6X@X6X6X6X6X6X6X6X6X",
"9X7X7X6X6X6X6X6X@X6X6X6X6X+X6X6X3 z K K 7.k.k.z.z._.P.v.S + : 1 f K L =.v.v.j.+ /.7X8X7X7X6X@X+X{.{.{.{..X6X7X6X6X6X6X6X6X6XtX@X",
"9X6X6X7X7X7X7X6X6X6X7X7X6X7X.X`.m N L Q q.k.j.z.z.v.z.k.A + 2 f M I Q 9.v.k.a.. K.`.qXpX7X+XtX@X6X7XiX7X6X6X6X6X7X7X6X6X6X7X8X7X",
"9X6X7X7X7X6X7X6X6X7X6X6X6XrXU.o L L L z.e.L I 9.v.v.i.I 3 + 2 K I I k.v.v.-.H . L.=X0X4X8X@XtX%X7X7X6X9X6X7X8X9X8X6X6X7X8X6X7X7X",
"9X6X6X6X6X@X+X6X6X6X6X6X7X7XU.o 3 N L -.Q L e.e.-.J N 3 + O + f M I ~ Q S m ^ (.;X=X`.~.<X|..X|.7X2X|.|.6X9X7X6X6X6X6X7X6X6X6X6X",
"9X+X6X6X6X6XrX6X6X7X6X6X6X).x.+ + c H K K K e.9.J E W ! 4 . X - f K H T ^ ^ a.:X>X&X^.T. X X'.|.7X+X X|.OX7X6X6X6X9X7X7X6X6X6X6X",
"9X+X%X6XtXtXrX@XtX+X6X+X6X@ = 2 2 - X o o o   X . `.tX+X! o   o       U =X=XP.L.&X^.P.R.<X1X.X.X7X7X+X6X6X7X7X6X6X6X6X6X2X6X6X6X",
"7X+X+X@XtX%X%X+X@X6X%X).d.; : 2 2 2 - - = . x.Y.Y.XX+X6XW + ; ; ; ; O T =X=X&X(.L.P.~._.<X X.X X6X@X+X6X6X6X@X+X6X6X+X6X6X6X6X6X",
"9X@X+X6X+X+XOXoX+XtX6XA.o : : 2 2 3 c : A R }.OX%X@XrX@XW + : 2 2 1 1 T L.P.!.P.^._.-X-X1X<X9X9X.X|.OXOXOXOXOXOX6X+XOXOX@X6X6X6X",
"9X6X+X%XtX+X|.'.tX+X@Xc.o . - 2 2 M L * d.+XOXXX@X6X+XtXW X   : 2 1 K S . x.~.!.T.T.<X4X<X}.7X7X|.}.'.|.|.OXOXOX6X+X|.|.+X6X6X+X",
"7X+XrX@X6X%XrX+X%X+Xd.*.; ; m C C =.i.K ~ d. X6XtX+X{.d.A ; - 2 f C L I q.d.g.-X3X<X<X1X7X9X.X}.'.|.OX.XOXXX6X7X6X6X6X6X6X6X6X6X",
"9X@X6X6X6X+X6X6X6XtX@ = 2 2 M K L 8.z.I V O ).6X6X6XQ.o < 2 2 2 c K I ~ z.S E 3X{. X.X1X6X+XoXoX.X.X6X.X+X.X6X7X7X@X7X6X6X6X7X@X",
"9X6X7X6X6XtX7X6X6X6X* - 2 1 2 2 2 M I L C 2 O d.6X6XY.o < 2 2 2 2 2 K L L L K 1 % W 6X6X6X7X@X@X+X6X6X6X6X6X6X6X7X6X9X6X6X6X7X7X",
"9X6X6X6X6X6X7X8X6X6X+ + = = = = = 3 m m 3 - X d.6X6XQ.X % = = % = = c m m m c = O W 7XtX7X@X@X7X7X7X9X8X6X6X7X7X9X6X6X6X8X7X7X7X",
"7X7X8X7X6X7X7X6X7X8X@       o o     . . o o o d.7X7XE.X . . . . o o . . . o o o X W @X@X+X+X6X7X7X7X7X8X7X7X8X7X9X6X9X6X7X7X9X7X",
"9X7X7X7X6X6X6X6X7X7X7X7XrXtX7X7X6X6X7X7X7X7X8X7X7X7X7X7X7X7X7X7X7XrX7X6XrX+X+XrX+X+X+XrX+X6X+X6X9X9X6X9X9X7X7X9X6X9X6X9X8X7X8X6X",
"9X8X8X7X9X9X7X7X7X8X9X7X7X8X7X8X9X9X7X7X9X9X8X7X7X8X7X8X7X8X7X7X8X6X7X7X6X7X%X6XtXrXrXrXrXrXrX7X7X8X9X9X9X9X8X9X9X7X9X8X7X9X9X9X",
"8X8XwXwXwXwXwXwXwXwXwXwXwXwX8XwXwXwXwXqX8XwXwXwXwXwXqX8XwXwXwXqXpXeXqX5XpXuXuXuX5X5XuX5XeXpXeXqXwXwXwX5XwXwXwXwXwXqXwXwXqXwXwXqX"
};
